<svg width="1169" height="331" viewBox="0 0 1169 331" fill="none" xmlns="http://www.w3.org/2000/svg">
<path d="M810.312 165.655C811.345 164.494 812.716 163.737 813.46 162.175C812.236 162.625 811.06 162.871 810.09 163.458C808.692 164.304 807.535 164.161 806.133 163.42C803.162 161.85 799.929 161.105 796.235 160.965C802.474 156.359 809.253 154.685 816.537 155.114C827.415 155.754 836.315 160.512 843.533 168.639C848.522 174.256 852.587 180.396 854.913 187.591C855.062 188.054 855.249 188.458 855.837 188.751C854.956 184.722 853.375 181.041 851.835 177.298C852.986 177.22 853.548 178.355 854.877 178.526C852.631 175.478 850.421 172.626 849.614 168.907C851.568 170.058 853.326 171.386 855.518 172.056C852.651 169.092 849.803 166.145 849.07 161.643C851.251 162.866 853.358 163.758 856.074 164.228C851.612 160.962 847.72 157.682 845.094 152.904C847.367 153.43 849.516 153.833 852.28 153.69C847.782 151.481 843.789 149.368 841.04 145.475C841.841 145.25 842.699 145.009 843.559 144.767C843.516 144.645 843.495 144.468 843.444 144.458C840.647 143.952 838.92 142.214 837.511 139.814C836.312 137.773 834.614 136.041 832.59 134.415C839.157 133.814 844.776 135.793 849.872 139.446C859.573 146.402 863.483 156.279 863.62 167.786C863.706 174.934 861.926 181.782 858.915 188.281C858.52 189.132 858.07 189.52 857.044 189.277C855.763 188.974 854.481 189.169 853.329 189.887C852.328 190.511 851.604 190.418 850.679 189.474C845.673 184.362 839.488 181.09 832.75 178.242C835.265 177.257 837.767 176.857 840.297 176.394C835.757 175.232 830.876 176.223 826.467 173.994C828.801 172.711 831.242 171.648 833.786 170.744C829.05 170.046 824.208 171.495 819.417 169.75C821.901 168.157 824.091 166.351 826.591 164.916C821.222 165.764 815.963 168.047 810.312 165.655Z" fill="#D1D8B7"/>
<path d="M872.982 202.817C873.111 204.441 873.25 206.065 873.358 207.691C873.379 208.006 873.5 208.435 873.04 208.572C872.688 208.678 872.538 208.337 872.347 208.139C869.131 204.803 865.785 201.603 862.109 198.778C861.461 198.28 861.741 197.878 861.902 197.452C862.169 196.745 862.234 195.913 863.417 195.922C867.174 195.953 870.887 196.297 874.58 197C882.296 198.468 889.102 201.752 894.842 207.161C903.798 215.599 908.394 229.313 903.719 242.002C903.587 242.361 903.371 242.687 903.096 243.218C901.856 239.464 900.296 236.088 897.861 233.197C897.342 232.58 897.564 232.008 897.634 231.394C897.77 230.203 897.918 229.013 898.121 227.326C897.275 228.771 896.679 229.791 896.035 230.89C893.254 226.777 892.95 222.282 892.856 217.71C891.842 219.502 891.197 221.389 890.591 223.496C887.162 219.942 886.991 215.651 886.963 210.922C885.838 213.156 885.465 215.25 884.703 217.322C881.466 214.362 881.65 210.355 880.894 206.14C880.362 209.014 879.6 211.351 879.836 213.965C875.89 211.124 875.214 206.55 872.982 202.817Z" fill="#D1D8B7"/>
<path d="M891.171 191.219C892.075 193.576 893.128 195.464 894.772 197.276C890.696 197.041 887.781 195.193 885.073 192.242C885.324 194.035 886.321 195.14 886.767 196.603C883.584 195.486 880.833 193.802 877.853 192.406C878.625 193.426 879.398 194.447 880.344 195.697C878.916 195.531 877.781 195.425 876.653 195.264C872.295 194.644 867.919 194.206 863.542 194.81C862.182 194.998 862.327 194.055 862.086 193.433C861.887 192.919 861.314 192.375 862.353 191.767C874.452 184.691 887.134 180.484 901.292 184.275C909.247 186.405 915.644 190.737 919.138 198.578C919.402 199.17 919.631 199.755 919.682 200.696C917.476 199.088 914.825 198.72 912.882 196.957C912.431 197.848 913.505 198.136 913.578 198.822C913.255 199.34 912.862 198.886 912.5 198.865C910.503 198.751 908.693 197.843 906.626 197.754C903.187 197.605 901.251 195.029 899.662 192.254C899.238 193.601 899.238 193.601 900.177 197.278C896.752 195.975 894.283 193.398 891.171 191.219Z" fill="#D1D8B7"/>
<path d="M877.77 158.759C875.646 154.973 875.138 151.062 876.368 146.784C877.156 147.702 877.884 148.552 878.956 149.802C878.978 146.315 878.997 143.304 879.017 140.135C882.716 142.967 884.538 146.71 885.362 151.082C886.196 155.511 885.174 159.518 882.965 163.409C883.83 162.853 884.696 162.297 885.793 161.592C884.776 166.83 882.643 171.253 879.904 175.411C876.145 181.117 870.889 185.125 865.042 188.46C863.978 189.067 862.949 189.737 861.901 190.373C861.322 190.725 860.82 191.251 860.036 190.62C859.215 189.958 859.47 189.295 859.852 188.618C862.148 184.541 863.679 180.137 865.317 175.78C865.499 175.295 865.608 174.782 865.796 174.125C866.525 175.393 867.195 176.558 868.116 178.161C868.26 174.632 867.771 171.539 868.744 168.406C869.627 169.954 870.586 171.391 872.203 172.82C871.045 168.839 869.669 165.229 871.31 161.297C872.592 163.099 873.615 165.014 875.321 166.92C874.519 162.938 873.565 159.359 873.529 155.202C874.891 156.848 875.92 158.282 877.77 158.759Z" fill="#D1D8B7"/>
<path d="M837.676 195.972C839.175 195.058 840.409 194.306 841.643 193.554C841.627 193.366 841.61 193.178 841.594 192.991C835.708 195.617 829.811 195.374 823.93 193.327C827.915 190.926 831.81 188.165 836.276 186.362C830.182 186.523 825.094 191.012 818.713 190.117C820.41 188.043 822.107 185.97 823.803 183.897C819.684 186.557 815.565 189.266 810.145 188.14C811.013 186.98 811.905 185.788 813.038 184.275C811.216 184.626 810.18 185.507 809.194 186.412C808.558 186.996 808.014 187.06 807.177 186.793C802.276 185.23 800.542 185.108 796.395 185.914C798.925 183.348 801.674 181.65 804.751 180.421C811.54 177.71 818.502 177.618 825.604 178.931C834.612 180.596 842.59 184.371 849.541 190.35C850.487 191.163 850.688 191.887 850.361 193.281C849.818 195.597 848.638 196.195 846.493 196.196C843.644 196.199 840.796 196.438 837.676 195.972Z" fill="#D1D8B7"/>
<path d="M247.723 221.127C247.515 219.587 247.832 218.053 247.13 216.472C246.675 217.694 246.097 218.747 245.911 219.866C245.643 221.477 244.782 222.263 243.306 222.845C240.181 224.078 237.511 226.048 235 228.761C235.564 221.026 238.706 214.791 243.773 209.54C251.34 201.699 260.745 198.039 271.613 197.849C279.124 197.719 286.431 198.63 293.407 201.547C293.856 201.735 294.285 201.856 294.889 201.601C291.257 199.647 287.434 198.451 283.59 197.184C284.28 196.259 285.508 196.571 286.502 195.674C282.727 195.395 279.123 195.216 275.775 193.408C277.92 192.674 280.073 192.204 282.008 190.975C277.891 191.223 273.8 191.466 269.906 189.093C272.254 188.232 274.303 187.214 276.427 185.458C271.044 186.72 266.02 187.539 260.684 186.422C262.562 185.039 264.267 183.671 265.958 181.479C261.353 183.456 257.15 185.111 252.406 184.665C252.756 183.91 253.131 183.102 253.507 182.292C253.386 182.245 253.238 182.145 253.198 182.178C250.993 183.972 248.55 184.151 245.81 183.659C243.48 183.24 241.061 183.402 238.508 183.88C242.327 178.503 247.487 175.526 253.577 174.036C265.172 171.198 275.216 174.66 284.041 182.045C289.522 186.633 293.563 192.442 296.536 198.958C296.926 199.812 296.927 200.406 296.075 201.027C295.01 201.802 294.324 202.902 294.119 204.244C293.942 205.411 293.4 205.899 292.081 205.987C284.942 206.459 278.432 209.025 271.883 212.287C272.773 209.736 274.098 207.576 275.393 205.354C271.556 208.044 269.132 212.395 264.57 214.292C265.115 211.684 265.896 209.139 266.866 206.619C263.253 209.761 261.202 214.38 256.758 216.88C257.166 213.958 257.221 211.12 257.759 208.287C254.907 212.916 253.217 218.394 247.723 221.127Z" fill="#D1D8B7"/>
<path d="M316.728 197.741C318.045 198.7 319.368 199.651 320.672 200.628C320.925 200.817 321.329 201.004 321.135 201.443C320.986 201.779 320.629 201.671 320.355 201.687C315.729 201.957 311.122 202.415 306.584 203.366C305.785 203.534 305.662 203.06 305.443 202.66C305.079 201.997 304.49 201.406 305.268 200.514C307.736 197.682 310.415 195.087 313.352 192.741C319.489 187.839 326.412 184.811 334.255 183.973C346.49 182.667 359.892 188.105 366.483 199.913C366.669 200.246 366.776 200.623 367 201.178C363.343 199.675 359.765 198.662 355.985 198.629C355.179 198.622 354.889 198.081 354.468 197.628C353.652 196.749 352.845 195.862 351.697 194.61C352.243 196.192 352.629 197.309 353.045 198.513C348.113 197.947 344.502 195.253 340.97 192.347C341.671 194.284 342.683 196.002 343.889 197.834C338.958 198.124 335.59 195.46 331.981 192.403C332.945 194.712 334.292 196.357 335.368 198.285C331.015 198.815 328.092 196.067 324.401 193.898C326.236 196.172 327.514 198.271 329.652 199.795C324.927 200.94 321.015 198.476 316.728 197.741Z" fill="#D1D8B7"/>
<path d="M319.763 176.383C322.14 177.231 324.259 177.661 326.705 177.592C323.873 180.534 320.573 181.544 316.57 181.679C318.095 182.655 319.582 182.618 320.983 183.231C318.064 184.921 314.995 185.913 311.994 187.266C313.272 187.344 314.55 187.422 316.115 187.517C315.059 188.493 314.24 189.286 313.384 190.038C310.076 192.942 306.895 195.979 304.505 199.696C303.762 200.85 303.141 200.126 302.512 199.904C301.992 199.721 301.206 199.802 301.421 198.618C303.924 184.826 308.986 172.461 321.079 164.18C327.874 159.527 335.326 157.491 343.554 159.942C344.175 160.127 344.768 160.334 345.516 160.909C342.859 161.536 340.854 163.309 338.251 163.637C338.634 164.559 339.551 163.931 340.12 164.322C340.302 164.904 339.702 164.907 339.451 165.168C338.065 166.61 336.197 167.393 334.783 168.904C332.432 171.418 329.217 171.211 326.075 170.611C326.822 171.81 326.822 171.81 330.225 173.49C327.006 175.242 323.442 175.439 319.763 176.383Z" fill="#D1D8B7"/>
<path d="M286.398 165.427C282.142 164.576 278.842 162.416 276.395 158.697C277.605 158.697 278.723 158.697 280.371 158.697C277.737 156.411 275.463 154.436 273.071 152.359C277.629 151.393 281.657 152.447 285.512 154.668C289.417 156.917 291.794 160.301 293.31 164.511C293.451 163.492 293.592 162.473 293.771 161.182C297.086 165.363 299.054 169.861 300.428 174.647C302.313 181.215 301.935 187.814 300.661 194.423C300.429 195.626 300.268 196.843 300.069 198.053C299.958 198.722 300.031 199.445 299.042 199.629C298.005 199.822 297.668 199.197 297.402 198.466C295.801 194.069 293.455 190.04 291.213 185.96C290.964 185.507 290.645 185.09 290.269 184.52C291.706 184.792 293.026 185.042 294.843 185.385C292.258 182.979 289.591 181.337 287.846 178.559C289.596 178.896 291.312 179.104 293.449 178.807C289.673 177.094 286.037 175.789 284.12 171.984C286.322 172.184 288.442 172.654 290.999 172.599C287.454 170.616 284.117 169.011 280.937 166.333C283.073 166.369 284.831 166.522 286.398 165.427Z" fill="#D1D8B7"/>
<path d="M288.55 220.088C288.832 218.355 289.064 216.928 289.297 215.502C289.143 215.392 288.99 215.283 288.837 215.173C286.999 221.35 282.977 225.669 277.595 228.802C278.366 224.213 278.805 219.459 280.343 214.895C276.499 219.627 276.595 226.411 271.762 230.673C271.292 228.034 270.823 225.396 270.354 222.759C269.692 227.618 269.067 232.508 264.683 235.89C264.368 234.475 264.044 233.023 263.633 231.178C262.713 232.79 262.708 234.149 262.753 235.487C262.783 236.35 262.477 236.804 261.73 237.266C257.352 239.969 256.131 241.206 254.044 244.879C253.743 241.288 254.243 238.096 255.313 234.96C257.674 228.042 262.136 222.696 267.755 218.16C274.883 212.405 282.942 208.806 292.005 207.421C293.238 207.232 293.919 207.55 294.764 208.707C296.168 210.626 295.854 211.911 294.46 213.54C292.607 215.705 290.935 218.022 288.55 220.088Z" fill="#D1D8B7"/>
<path d="M518.268 211H479.581V180.104H393.555V143.243L470.876 57.3253H518.268V148.187H537.612V180.104H518.268V211ZM430.631 148.187H479.581V93.4872L430.631 148.187ZM554.551 134.163C554.551 85.5885 584.588 54.1013 626.553 54.1013C668.571 54.1013 698.554 85.5885 698.554 134.163C698.554 182.737 668.571 214.224 626.553 214.224C584.588 214.224 554.551 182.737 554.551 134.163ZM594.528 134.163C594.528 164.898 605.919 181.017 626.553 181.017C647.186 181.017 658.577 164.898 658.577 134.163C658.577 103.374 647.186 87.308 626.553 87.308C605.919 87.308 594.528 103.374 594.528 134.163ZM839.496 211H800.809V180.104H714.783V143.243L792.104 57.3253H839.496V148.187H858.84V180.104H839.496V211ZM751.858 148.187H800.809V93.4872L751.858 148.187Z" fill="#35363A"/>
<path d="M155.873 286.658C188.179 286.465 271.552 277.98 346.593 245.587C440.393 205.095 498.865 171.912 578.961 219.987C659.056 268.062 703.274 254.632 722.764 243.191C752.783 225.571 805.808 163.57 887.519 196.074C960.626 225.156 999.67 279.454 1072.51 290.945L1129.28 291.21C1107.99 293.97 1089.34 293.602 1072.51 290.945L155.873 286.658Z" fill="url(#paint0_linear_212_4873)"/>
<path d="M640.714 215.991C633.103 217.429 615.834 214.987 601.015 212.099C569.683 205.992 553.752 177.492 549.066 151.794C542.406 115.279 562.915 65.0799 611.682 55.8638C660.449 46.6478 696.275 84.2837 705.169 117.084C713 145.969 705.99 175.271 682.495 194.231C675.9 199.553 664.418 206.052 654.809 210.584C648.858 213.389 643.625 215.44 640.714 215.991Z" fill="#8AAD0C"/>
<path d="M559.734 97.4518C547.395 124.124 546.84 158.241 562.021 182.369C577.16 206.43 605.496 214.281 627.315 212.565C632.816 212.132 606.775 198.092 596.621 188.798C574.613 168.651 567.658 140.561 568.938 113.66C569.336 105.289 568.923 91.2112 566.078 89.1636C564.603 88.1017 560.181 96.306 559.734 97.4518Z" fill="#779900"/>
<path d="M618.132 189.455C622.402 197.193 628.687 203.223 635.066 209.36C635.658 209.93 634.795 210.905 634.073 210.596C625.518 206.949 619.044 198.566 616.26 190.238C615.868 189.062 617.528 188.357 618.132 189.455Z" fill="#779900"/>
<path d="M648.018 79.7982C644.069 74.5831 636.831 69.2365 632.147 64.6876C631.279 63.845 634.435 63.6465 635.658 64.2934C641.724 67.5022 646.14 73.1926 649.638 78.7538C650.271 79.7612 648.742 80.7542 648.018 79.7982Z" fill="#779900"/>
<path d="M584.495 99.8555C583.17 94.0309 585.133 87.9121 587.04 82.3102C588.766 77.2422 590.593 71.584 595.424 68.5504C596.679 67.7618 598.511 69.3207 597.843 70.5933C592.848 80.1023 589.203 89.6801 586.448 99.9806C586.184 100.968 584.69 100.711 584.495 99.8555Z" fill="#779900"/>
<path d="M703.594 129.798C708.003 184.439 664.468 203.302 660.71 199.732C656.953 196.162 670.957 186.019 681.176 155.689C695.102 114.349 666.585 79.1696 668.021 75.7857C669.794 71.6053 700.59 92.5787 703.594 129.798Z" fill="#BACC6D"/>
<path d="M611.962 54.7794C587.689 59.3665 576.981 72.3219 576.983 73.0997C576.984 73.8777 583.964 74.3489 583.964 74.3489C586.812 74.6518 589.574 74.5563 592.176 74.0647C594.918 73.5464 597.5 72.5858 599.87 71.2023C604.58 72.7726 610.447 73.0036 616.632 71.8346C622.917 70.6469 628.84 68.1184 633.154 64.8143C635.498 65.0587 637.858 64.9616 640.189 64.5211C642.326 64.1173 644.465 63.4196 646.548 62.4468C646.548 62.4468 651.727 59.4612 651.694 59.0299C651.661 58.5984 636.235 50.1922 611.962 54.7794Z" fill="#467802"/>
<path d="M641.401 9.66764C636.467 17.7412 631.54 25.8828 627.175 34.2938C622.888 42.555 619.77 51.3088 615.98 59.7766C614.966 62.0436 610.948 60.1798 611.56 57.7686C616.343 38.9462 627.244 21.577 639.632 8.46328C640.434 7.61501 642.082 8.55454 641.401 9.66764Z" fill="#598414"/>
<path d="M587.616 42.1102C597.102 44.0907 608.468 49.1422 615.464 57.1178C616.971 58.8352 613.993 61.566 612.347 60.7381C607.854 58.4774 603.597 54.1541 599.29 51.5621C595.028 48.997 591.023 46.3322 586.493 44.2469C584.78 43.4584 586.063 41.8753 587.616 42.1102Z" fill="#598414"/>
<path d="M0.872987 289.658C33.1793 289.465 116.552 280.98 191.593 248.587C285.393 208.095 343.865 174.912 423.961 222.987C504.056 271.062 548.274 257.632 567.764 246.191C597.783 228.571 650.808 166.57 732.519 199.074C805.626 228.156 844.67 282.454 917.506 293.945L974.278 294.21C952.989 296.97 934.344 296.602 917.506 293.945L0.872987 289.658Z" fill="url(#paint1_linear_212_4873)"/>
<defs>
<linearGradient id="paint0_linear_212_4873" x1="684.5" y1="275.5" x2="684.407" y2="179.741" gradientUnits="userSpaceOnUse">
<stop stop-color="#F3FFF4"/>
<stop offset="1" stop-color="#C9D894"/>
</linearGradient>
<linearGradient id="paint1_linear_212_4873" x1="527.793" y1="290.909" x2="529.282" y2="182.725" gradientUnits="userSpaceOnUse">
<stop stop-color="#F3FFF4"/>
<stop offset="1" stop-color="#B4CD5B"/>
</linearGradient>
</defs>
</svg>
