<svg width="20" height="20" viewBox="0 0 20 20" fill="none" xmlns="http://www.w3.org/2000/svg">
<path d="M18.7455 9.99969L19.8495 8.09169C19.9822 7.86213 20.0182 7.58928 19.9498 7.33312C19.8813 7.07696 19.714 6.85847 19.4845 6.72569L17.5745 5.62169V3.42169C17.5745 3.15647 17.4691 2.90212 17.2816 2.71458C17.094 2.52705 16.8397 2.42169 16.5745 2.42169H14.3755L13.2725 0.512691C13.1399 0.283022 12.9216 0.115401 12.6655 0.0466913C12.5386 0.0126928 12.4062 0.00402527 12.276 0.0211836C12.1458 0.0383419 12.0202 0.0809899 11.9065 0.146691L9.99647 1.25069L8.08647 0.145691C7.85679 0.0130889 7.58384 -0.0228457 7.32767 0.0457922C7.07149 0.11443 6.85308 0.282018 6.72047 0.511691L5.61647 2.42169H3.41747C3.15225 2.42169 2.8979 2.52705 2.71036 2.71458C2.52282 2.90212 2.41747 3.15647 2.41747 3.42169V5.62069L0.507466 6.72469C0.393695 6.79044 0.293996 6.87796 0.21407 6.98226C0.134144 7.08656 0.0755577 7.20559 0.0416597 7.33255C0.00776177 7.4595 -0.000782853 7.59189 0.0165142 7.72215C0.0338112 7.85241 0.0766106 7.97798 0.142466 8.09169L1.24647 9.99969L0.142466 11.9077C0.010455 12.1375 -0.0253618 12.4101 0.0428246 12.6662C0.111011 12.9223 0.277671 13.141 0.506466 13.2747L2.41647 14.3787V16.5777C2.41647 16.8429 2.52182 17.0973 2.70936 17.2848C2.8969 17.4723 3.15125 17.5777 3.41647 17.5777H5.61647L6.72047 19.4877C6.809 19.639 6.9354 19.7647 7.08724 19.8524C7.23909 19.9401 7.41114 19.9867 7.58647 19.9877C7.76047 19.9877 7.93347 19.9417 8.08747 19.8527L9.99547 18.7487L11.9055 19.8527C12.135 19.9854 12.4079 20.0215 12.664 19.953C12.9202 19.8846 13.1387 19.7172 13.2715 19.4877L14.3745 17.5777H16.5735C16.8387 17.5777 17.093 17.4723 17.2806 17.2848C17.4681 17.0973 17.5735 16.8429 17.5735 16.5777V14.3787L19.4835 13.2747C19.5972 13.2089 19.6969 13.1214 19.7769 13.0171C19.8568 12.9128 19.9154 12.7938 19.9493 12.6668C19.9832 12.5399 19.9917 12.4075 19.9744 12.2772C19.9571 12.147 19.9143 12.0214 19.8485 11.9077L18.7455 9.99969ZM7.49547 4.98969C7.89342 4.98982 8.27503 5.14804 8.55633 5.42953C8.83764 5.71102 8.9956 6.09273 8.99547 6.49069C8.99533 6.88865 8.83712 7.27025 8.55563 7.55156C8.27413 7.83286 7.89242 7.99082 7.49447 7.99069C7.09651 7.99056 6.7149 7.83234 6.4336 7.55085C6.15229 7.26936 5.99433 6.88765 5.99447 6.48969C5.9946 6.09173 6.15281 5.71013 6.43431 5.42882C6.7158 5.14752 7.09751 4.98956 7.49547 4.98969ZM7.79547 14.5897L6.19547 13.3907L12.1955 5.39069L13.7955 6.58969L7.79547 14.5897ZM12.4955 14.9897C12.2984 14.9896 12.1033 14.9507 11.9213 14.8753C11.7393 14.7998 11.5739 14.6892 11.4346 14.5499C11.2953 14.4105 11.1848 14.245 11.1095 14.0629C11.0341 13.8809 10.9954 13.6857 10.9955 13.4887C10.9955 13.2916 11.0344 13.0965 11.1099 12.9145C11.1853 12.7325 11.2959 12.5671 11.4353 12.4278C11.5747 12.2885 11.7401 12.1781 11.9222 12.1027C12.1043 12.0274 12.2994 11.9886 12.4965 11.9887C12.8944 11.9888 13.276 12.147 13.5573 12.4285C13.8386 12.71 13.9966 13.0917 13.9965 13.4897C13.9963 13.8876 13.8381 14.2693 13.5566 14.5506C13.2751 14.8319 12.8934 14.9898 12.4955 14.9897Z" fill="#E0B424"/>
</svg>
