<svg width="66" height="66" viewBox="0 0 66 66" fill="none" xmlns="http://www.w3.org/2000/svg">
<path d="M56.9292 59.81L49.5734 43.1676C49.4328 42.8613 49.1252 42.6601 48.7913 42.6601H43.2458L48.51 36.1149C53.1678 30.3223 54.0643 22.5524 50.8302 15.8588C47.6048 9.16523 40.9607 5 33.4997 5C26.0387 5 19.3944 9.16495 16.1693 15.8588C12.9352 22.5524 13.8316 30.3223 18.4894 36.1149L23.7537 42.6601H18.2082C17.8742 42.6601 17.5667 42.8613 17.426 43.1676L10.0702 59.81C9.95597 60.0725 9.98234 60.3787 10.1405 60.615C10.2987 60.8513 10.5624 61 10.8524 61H56.1476C56.4376 61 56.7013 60.8513 56.8595 60.615C57.0177 60.3788 57.0435 60.0725 56.9292 59.81ZM33.4995 14.4506C38.6231 14.4506 42.789 18.598 42.789 23.6994C42.789 28.8008 38.6234 32.9483 33.4995 32.9483C28.3756 32.9483 24.21 28.8008 24.21 23.6994C24.21 18.598 28.3756 14.4506 33.4995 14.4506ZM12.1525 59.3027L18.7614 44.3576H25.1239L32.8313 53.9385C32.9983 54.1397 33.2444 54.2535 33.4992 54.2535C33.7541 54.2535 34.0002 54.1397 34.1671 53.9385L41.8745 44.3576H48.237L54.8459 59.3027H12.1525Z" fill="#7DAC3C"/>
</svg>
