<svg width="67" height="66" viewBox="0 0 67 66" fill="none" xmlns="http://www.w3.org/2000/svg">
<path d="M14.7173 18.6L11.3424 15.954C12.2285 15.3352 13.2821 15.0022 14.3602 15H53.6459C54.724 15.0022 55.7776 15.3353 56.6637 15.954L53.3066 18.6L34.7706 33.1442C34.2527 33.6302 33.7528 33.6302 33.1099 33.0542L14.7173 18.6ZM58.7528 18.87L55.4313 21.48L37.0742 35.898C36.2528 36.681 35.168 37.1175 34.0385 37.122C32.8331 37.1085 31.6769 36.6315 30.8064 35.79L12.5744 21.4797L9.25293 18.8697C9.09668 19.3648 9.01186 19.88 9.00293 20.3997V45.6C9.01186 48.579 11.4047 50.991 14.3601 51H53.6458C56.6012 50.991 58.994 48.579 59.0029 45.6V20.3997C58.994 19.88 58.909 19.365 58.7528 18.87Z" fill="#7DAC3C"/>
</svg>
