<svg width="62" height="62" viewBox="0 0 62 62" fill="none" xmlns="http://www.w3.org/2000/svg">
<path d="M7.28573 20.6659C7.40827 20.239 7.53002 19.8113 7.6549 19.3844C8.10757 17.8321 8.91614 16.4929 10.0158 15.3074C10.751 14.5153 11.6166 13.8909 12.5211 13.3439C13.8378 12.5478 15.5369 12.8288 16.5171 14.1063C17.5911 15.5049 18.6385 16.9237 19.6968 18.3355C20.3063 19.1487 20.9096 19.9674 21.5223 20.7783C22.615 22.2236 22.4393 24.0272 21.0345 25.1932C20.1502 25.9268 19.2082 26.5917 18.2865 27.2792C18.0297 27.4705 17.7503 27.6328 17.4818 27.8084C18.4769 30.5438 19.5953 33.1231 21.2031 35.4636C23.6858 39.0778 26.2356 41.1538 28.9969 43.1712C29.7531 42.596 30.5188 42.0107 31.2875 41.4292C31.6762 41.135 32.0618 40.8353 32.4629 40.5583C33.65 39.7381 35.0276 39.7092 36.1749 40.5676C36.6197 40.9001 36.9608 41.3879 37.3026 41.8398C38.8175 43.8416 40.309 45.8621 41.8239 47.8639C42.2555 48.4336 42.4233 49.0814 42.5216 49.7635C42.4803 50.0515 42.4389 50.3394 42.3975 50.6266C42.1923 50.9942 42.0455 51.4156 41.77 51.7208C40.9014 52.6823 39.8485 53.4292 38.6864 53.9887C36.5471 55.0173 34.3189 55.2866 31.9931 54.6849C29.5049 54.041 27.2221 52.9531 25.068 51.578C23.3767 50.4986 21.8134 49.2468 20.3477 47.8811C18.5081 46.1672 16.8239 44.3059 15.3027 42.3033C13.8284 40.3624 12.422 38.3731 11.1608 36.2839C9.7247 33.9051 8.47517 31.4436 7.70719 28.7582C7.26232 27.2035 6.99462 25.6247 7.00008 24.0046C7.00164 23.5496 7.00164 23.0946 7.00164 22.6396C7.09764 21.9817 7.19208 21.3238 7.28573 20.6659Z" fill="#7DAC3C"/>
<path d="M40.6934 35.7578C40.6669 35.7578 40.6404 35.7571 40.6131 35.7563C39.4962 35.7126 38.626 34.7722 38.6697 33.6554C38.8094 30.063 37.5302 27.2652 34.868 25.3399C32.8458 23.8773 30.7588 23.4551 30.7385 23.4512C29.6396 23.2444 28.9169 22.1869 29.123 21.0881C29.329 19.9892 30.3889 19.2665 31.4862 19.4726C35.5338 20.2335 43.0887 24.209 42.7149 33.8122C42.6719 34.9025 41.7744 35.7578 40.6934 35.7578Z" fill="#7DAC3C"/>
<path d="M52.9416 37.684C52.9151 37.684 52.8885 37.6832 52.8612 37.6824C51.7444 37.6387 50.8742 36.6983 50.9179 35.5815C51.2542 26.9429 48.1487 20.1937 41.6872 15.5213C36.8023 11.989 31.8229 11.0229 31.7737 11.0135C30.6748 10.8067 29.9521 9.74921 30.1581 8.65036C30.3642 7.55151 31.424 6.82961 32.5214 7.03486C32.761 7.08013 38.4491 8.18366 44.0599 12.2403C49.3038 16.0325 55.4524 23.1875 54.963 35.7384C54.9201 36.8294 54.0234 37.684 52.9416 37.684Z" fill="#7DAC3C"/>
</svg>
