<svg width="67" height="66" viewBox="0 0 67 66" fill="none" xmlns="http://www.w3.org/2000/svg">
<path d="M25.9971 7C11.6599 7 -0.00292969 18.6629 -0.00292969 33C-0.00292969 47.3371 11.6599 59 25.9971 59C40.3342 59 51.9971 47.3371 51.9971 33C51.9971 18.6629 40.3342 7 25.9971 7ZM34.7444 41.7473C34.3729 42.1002 33.9087 42.2859 33.4258 42.2859C32.9428 42.2859 32.4786 42.1002 32.1072 41.7473L24.6786 34.3187C24.3443 33.9659 24.14 33.5016 24.14 33.0001V21.8573C24.14 20.8358 24.9757 20.0001 25.9972 20.0001C27.0186 20.0001 27.8543 20.8358 27.8543 21.8573V32.2388L34.7444 39.11C35.4688 39.8343 35.4687 41.023 34.7444 41.7473Z" fill="#7DAC3C"/>
</svg>
