<svg width="156" height="70" viewBox="0 0 156 70" fill="none" xmlns="http://www.w3.org/2000/svg">
<path fill-rule="evenodd" clip-rule="evenodd" d="M129.22 0C131.525 0.355793 138.778 7.12183 137.86 8.09068C137.107 8.88514 136.784 11.7894 139.819 11.0194C141.862 10.5008 141.822 12.3584 143.388 12.702C141.83 12.805 140.883 13.4496 139.06 14.5375C137.436 15.5067 135.447 16.4574 132.923 16.3307C131.032 16.2363 130.034 15.6649 128.683 15.6547C127.483 15.6457 124.686 15.8079 123.906 16.8545C123.9 16.4094 124.965 14.2374 124.175 13.2579C126.365 14.0493 128.248 13.568 130.293 12.2824C129.893 11.0005 126.842 9.69132 126.697 9.56973C127.529 8.81155 128.898 8.27004 130.83 8.68713C129.644 6.47101 130.536 2.46521 129.22 0Z" fill="#D1DED2"/>
<path fill-rule="evenodd" clip-rule="evenodd" d="M78.946 54.7616C78.3069 54.7423 74.9996 55.5797 73.4844 56.4107C74.9053 55.4018 75.3707 54.3209 75.3707 52.9456C79.1497 53.5702 86.4926 50.0363 89.844 53.087C89.8948 53.1329 90.7019 53.7721 90.8627 53.8059C90.147 54.1733 89.5811 54.483 88.6781 54.5353C88.6808 54.5786 90.3244 59.1745 90.5648 60.1154C88.5509 59.1899 85.9559 56.1377 85.0037 55.8003C84.897 56.1313 81.4234 69.0901 81.4284 69.192C78.338 64.7566 78.946 59.9734 78.946 54.7616Z" fill="#D1DED2"/>
<path fill-rule="evenodd" clip-rule="evenodd" d="M4.37489 48.9613C3.0689 48.9508 1.75544 49.6153 0.893698 50.5825C1.05157 49.4493 1.3115 49.3899 0 47.6781C1.62204 48.1227 3.37653 47.8005 4.07379 47.577C4.42958 45.6643 3.94119 45.0473 2.58208 43.7212C4.9301 42.9212 7.59158 42.8749 8.77362 45.3919C9.38951 45.4675 10.2237 45.0696 11.2971 46.1046C10.1855 47.0009 9.39235 47.6253 8.91929 47.7514C8.10446 51.1066 6.15189 52.4244 4.03846 53.5678C3.90735 52.3464 5.17171 50.592 4.37489 48.9613Z" fill="#D1DED2"/>
<path fill-rule="evenodd" clip-rule="evenodd" d="M38.9688 56.2581C40.632 56.4891 41.3277 55.9142 42.7954 55.8891C48.7021 52.1171 50.1382 55.4813 51.6034 55.3488C50.5708 56.2899 49.9125 56.5469 49.1487 56.3246C49.764 58.3868 46.9419 61.1735 46.2247 64.7799C43.7981 62.5468 45.1064 60.2114 43.8063 57.4142C42.0927 56.8298 41.6933 57.0687 40.2082 57.9982C40.1741 56.9754 39.9462 56.7417 38.9688 56.2581Z" fill="#D1DED2"/>
<path fill-rule="evenodd" clip-rule="evenodd" d="M156 48.367C153.832 48.2167 153.257 47.5115 151.654 48.7977C149.151 45.4956 153.013 43.9407 145.113 41.5859C146.405 43.7899 143.912 45.6581 146.729 52.902C145.014 54.9914 142.168 55.6343 139.734 56.1478C140.822 56.0054 142.985 57.9008 143.268 58.8944C143.758 57.3826 144.904 56.2654 148.088 56.2934C149.227 56.3036 151.335 62.8339 155.405 62.9193C156.293 60.556 156.373 58.4297 152.922 52.5415C154.432 52.0567 155.858 50.0873 156 48.367Z" fill="#D1DED2"/>
<path fill-rule="evenodd" clip-rule="evenodd" d="M97.8158 39.0923C96.4885 40.089 96.1343 40.1497 94.573 39.9931C94.3404 43.1425 99.348 44.9561 95.2644 49.7402C95.1763 47.7956 90.9159 45.2143 89.7123 39.4162C87.746 38.7933 85.6559 39.5641 83.8828 40.2464C84.6391 39.8861 84.9063 37.4374 84.6756 36.6846C85.6165 37.4471 88.2061 37.9853 89.1752 36.6846C89.6946 35.9877 89.7453 34.0568 92.3172 32.3125C93.8683 33.4537 94.3086 32.512 94.5432 37.7068C95.7117 37.3898 96.5176 38.7704 97.8158 39.0923Z" fill="#D1DED2"/>
</svg>
