<svg width="78" height="70" viewBox="0 0 78 70" fill="none" xmlns="http://www.w3.org/2000/svg">
<path d="M41.0149 34.4671C36.7615 27.6661 23.2052 32.8313 14.8741 35.6845C10.5696 37.1406 6.02316 38.7998 3.42472 42.7371C0.826276 46.6744 1.28558 53.6484 5.52365 56.2909C8.38401 58.0691 11.7199 57.298 14.6123 56.2745C25.0135 52.6014 31.562 47.7814 39.2162 39.5244C37.8531 46.5037 39.4074 52.6407 42.0608 59.6371C44.7141 66.6334 53.1215 72.013 58.2495 67.9817C60.1395 66.5047 61.2197 64.0722 61.7533 61.5292C63.9624 50.6511 54.7056 37.541 44.3335 36.8436C49.5824 37.0844 54.8022 39.1964 60.047 40.2401C65.2917 41.2837 71.0706 41.0977 74.7391 37.3918C78.4076 33.686 78.2856 25.5375 73.5561 22.4716C71.5826 21.1981 69.3174 21.0148 67.1577 20.9451C57.6944 20.6146 47.3543 22.1139 42.0305 30.0767C45.4696 25.415 49.0213 20.383 49.3813 14.136C49.7413 7.88896 45.3065 0.303074 39.5946 0.203086C34.881 0.109939 31.6079 5.14677 31.3772 10.3113C31.1465 15.4758 33.0867 20.6731 35.0251 25.6789C30.732 20.8499 26.3102 15.9176 20.8965 12.9302C15.471 9.9159 8.80173 9.21422 4.38983 12.8645C-0.0220691 16.5148 -0.603207 25.1987 4.16067 29.467C6.34936 31.4143 9.1303 32.1383 11.7927 32.5943C19.7336 33.9829 27.7628 33.6343 35.2663 31.6599" fill="#48C356"/>
</svg>
