<svg width="229" height="223" viewBox="0 0 229 223" fill="none" xmlns="http://www.w3.org/2000/svg">
<g opacity="0.5">
<path d="M0 125.826C10.1283 98.336 33.2776 91.101 59.3222 89.654C66.0736 89.1723 73.3087 88.6906 80.5429 90.6189C82.4716 91.101 83.4361 90.1373 84.4015 88.207C97.4226 53.0003 123.467 29.3684 154.816 10.5589C160.12 7.66484 164.943 4.28917 170.249 0.913472C172.179 -0.0518587 173.143 -0.533537 175.554 0.913472C200.634 18.7573 224.748 37.5668 241.146 64.5747C253.686 85.7962 262.85 107.981 261.884 133.061C260.437 167.304 246.933 195.759 218.961 216.98C217.996 217.943 216.549 218.428 215.102 219.875C237.288 221.803 258.99 219.39 280.212 223.732C273.942 226.144 268.154 228.555 261.402 228.555C247.897 229.037 234.393 229.037 220.89 229.52C200.151 230.002 179.412 230.483 158.192 230.967C152.886 230.967 152.886 230.967 149.511 235.79C182.307 238.2 215.102 234.825 247.416 239.647C240.663 242.541 233.911 243.989 226.677 244.471C199.669 246.399 172.66 245.435 145.652 245.435C140.347 245.435 135.041 245.917 129.737 250.258C158.192 251.224 185.682 249.777 214.62 252.669C206.903 256.047 200.151 257.009 193.399 257.494C180.377 258.938 167.356 259.422 154.334 259.904C125.879 260.386 97.9054 261.351 69.4505 260.869C54.9812 260.869 40.0302 260.869 25.5621 257.01C24.5976 256.528 23.6322 256.528 22.6681 255.081C29.9019 251.223 38.5832 252.669 47.2645 250.258C37.6191 245.435 29.9019 239.647 22.6681 232.896C13.0223 223.731 5.78843 212.639 1.4474 199.618C1.4474 199.134 0.96454 199.134 0.483257 198.653C-3.86209e-07 174.055 0 149.941 0 125.826ZM108.515 212.157C124.914 213.121 135.524 211.193 145.652 206.369C163.014 198.171 168.803 176.949 159.156 157.658C142.758 124.381 115.267 105.571 79.5784 99.3014C63.6621 96.407 47.2641 97.8544 31.8302 104.606C10.6103 114.733 2.89362 134.989 13.0207 156.211C18.3271 167.785 26.5259 176.949 36.6537 184.666C59.3222 202.028 84.8828 211.192 108.515 212.157ZM158.673 221.319C174.107 208.298 181.342 182.256 175.073 161.515C169.766 143.19 158.673 128.238 144.687 115.698C141.311 112.804 140.83 109.91 140.83 105.571C142.758 86.2783 147.581 67.9524 154.334 49.6246C156.745 42.3895 160.121 35.1561 162.533 27.9211C153.369 38.5322 148.064 52.0369 138.9 63.1297C141.794 49.1429 149.511 37.5669 156.264 25.5111C149.511 31.2968 143.241 37.5668 137.936 45.2836C139.383 38.5322 144.687 33.2258 148.064 25.9927C112.857 49.1433 95.0118 78.0799 93.0831 93.5134C98.8704 83.3867 105.14 74.2226 112.857 66.0218C108.516 75.6696 104.176 85.3149 103.693 96.4073C108.034 89.1727 111.41 81.9372 114.785 74.2225C118.162 66.9875 125.879 57.3421 129.737 54.9297C122.985 69.8815 116.232 84.8313 116.715 101.712C120.091 90.1381 124.432 79.0457 130.219 68.9162C130.219 74.7042 128.29 80.9743 128.772 88.2094C132.149 82.4213 134.56 78.0802 136.972 73.2575C136.972 80.4926 136.007 87.244 135.042 94.479C134.56 99.3021 135.525 104.606 134.077 108.948C132.63 112.323 133.595 113.289 135.524 115.217C141.794 120.522 147.581 126.792 152.887 133.062C168.32 151.389 176.038 171.646 169.767 195.759C168.32 204.441 163.979 213.121 158.673 221.319ZM169.284 28.4027C158.191 57.3417 147.099 86.762 152.403 118.593C153.369 88.2067 164.461 58.7887 169.284 28.4027ZM15.9151 177.915C15.4334 187.078 17.845 194.795 22.1848 202.028C22.1848 197.687 20.7378 193.83 22.6677 189.489C24.5972 196.724 27.0075 203.957 30.8673 210.71C30.3844 205.404 29.4203 200.099 31.349 194.795C31.8306 193.347 30.8673 191.901 29.902 190.936C25.0792 187.078 21.7032 181.772 15.9151 177.915ZM209.797 76.1508C211.244 87.7245 212.69 99.299 213.655 111.357C214.62 123.415 214.137 134.989 215.102 147.047C219.443 122.933 217.031 99.299 209.797 76.1508ZM17.845 210.711C16.398 206.369 14.4681 202.028 13.0211 197.687C10.1279 189.971 8.1984 181.772 9.16373 173.574C9.64541 169.233 8.68087 165.375 4.34103 161.997C2.89402 180.325 7.23386 196.724 17.845 210.711ZM179.895 23.58C182.788 42.3895 183.752 61.1986 185.682 80.0082C186.646 61.1986 187.612 41.9078 179.895 23.58ZM150.475 212.639C140.83 219.39 137.454 230.002 129.254 236.271C139.864 231.93 149.993 221.319 150.475 212.639ZM172.178 68.9154C176.518 53.482 176.518 38.5321 174.589 23.0983C174.107 38.5321 173.143 53.9656 172.178 68.9154ZM44.8529 221.803C42.9242 215.049 41.4772 208.298 43.4071 201.065C44.3705 198.171 41.9601 197.687 40.0302 196.724C39.0661 196.24 38.5832 196.724 38.5832 197.687C37.6187 206.851 39.5474 215.049 44.8529 221.803ZM132.147 220.356C126.843 227.107 122.02 234.343 114.785 240.128C125.396 236.753 132.63 228.555 132.147 220.356ZM202.08 107.018C202.562 98.336 203.044 89.654 200.633 80.0082C200.151 89.6536 202.08 98.336 202.08 107.018ZM66.0736 209.745C59.3222 206.369 52.0872 203.475 45.3358 200.099C51.1226 205.888 58.3569 208.298 66.0736 209.745ZM183.271 121.968C184.718 115.216 185.682 108.463 183.271 101.711C183.271 108.947 183.271 115.698 183.271 121.968ZM75.2373 71.8094C71.3792 65.5397 67.0389 59.27 62.6979 53.482C60.7692 51.0716 60.7692 48.1771 63.1796 46.2488C66.0736 44.3202 68.4859 45.2835 70.8963 47.2118C72.8262 49.1429 73.3087 51.5532 73.7903 53.9652C74.7557 60.2357 74.7557 66.0213 75.2373 71.8094ZM65.5919 68.4336C59.8039 65.058 54.0167 65.058 47.7469 64.0927C46.2999 64.0927 43.8888 64.0927 43.8888 61.6827C43.8888 59.7516 45.3358 58.3047 47.2645 57.8234C49.6768 57.3417 52.0872 57.3416 54.9812 58.7887C59.8039 60.7169 63.1796 64.0926 65.5919 68.4336ZM94.5282 127.273C84.4011 136.92 82.4712 149.459 86.3298 162.481C90.1883 175.502 99.352 184.666 113.338 186.595C126.36 188.526 136.971 183.7 143.241 170.679C143.724 180.808 139.864 187.078 131.184 191.417C123.467 195.277 114.785 196.723 106.586 195.758C79.0959 193.348 54.4991 183.7 37.137 161.034C27.9729 148.976 27.4904 135.954 35.2071 126.309C41.9597 118.11 51.1226 115.216 61.2505 114.251C86.8122 112.804 108.515 120.521 126.842 138.367C128.289 139.812 129.736 141.743 131.665 144.153C127.324 143.19 124.431 145.118 121.537 146.565C122.501 145.6 122.984 145.118 123.948 144.153C124.431 143.19 126.842 143.19 125.395 141.259C124.431 139.814 122.984 140.296 121.537 141.259C119.126 143.19 116.714 145.118 113.82 147.047C114.303 143.671 116.714 142.224 118.644 140.295C119.607 139.33 121.537 138.848 120.573 137.401C119.607 135.954 117.678 136.436 116.231 137.401C111.891 139.814 108.515 143.189 106.586 148.012C105.622 150.422 105.139 152.835 103.692 156.211C104.175 146.565 107.55 139.33 113.82 133.544C106.586 132.097 102.245 138.367 96.4576 155.246C95.0106 144.637 99.3517 136.436 104.657 128.721C95.9748 132.097 94.0465 139.814 91.6349 147.531C88.7405 156.211 92.1174 162.962 97.9046 170.679C86.8126 163.446 86.3298 148.494 94.5282 127.273Z" fill="#7DAC3C"/>
</g>
</svg>
