<svg width="72" height="66" viewBox="0 0 72 66" fill="none" xmlns="http://www.w3.org/2000/svg">
<path d="M72 42.1924C70.746 46.1348 69.1157 49.8304 66.6076 53.1566C63.2218 57.7152 58.9575 61.0414 53.6904 63.2591C53.5651 63.3821 53.4399 63.3821 53.0636 63.5051C57.5784 64.1213 62.093 63.2591 66.733 64.614C65.1026 65.4763 63.598 65.5997 62.093 65.5997C50.1793 66.2154 38.2655 65.9694 26.3512 65.8458C23.9684 65.8458 21.5861 65.8458 19.3285 65.1066C18.9523 64.9835 18.576 64.9834 18.0745 64.4909C22.8401 63.1359 27.6054 64.1213 32.4964 63.382C27.8565 61.5344 23.9685 58.824 20.7078 55.2513C16.5695 50.5697 14.0614 45.1494 13.1836 38.9893C12.682 35.1706 12.5564 31.4743 13.5598 27.7786C13.8108 27.0398 13.5598 26.7932 12.8073 26.9163C7.54012 27.6555 3.52688 25.3147 0.266293 21.619C-0.360365 20.8797 0.266284 20.7567 0.642545 20.6331C3.27638 19.1552 6.16085 18.2929 9.17042 18.2929C10.4245 18.2929 11.6786 18.1693 13.3089 18.662C11.9295 17.5536 10.9261 16.6913 10.0482 15.7055C5.78457 11.1475 6.03506 5.48062 8.9199 0.429375C9.04525 0.0597542 9.29565 -0.186825 9.79778 0.182795C11.4281 1.29166 13.3089 1.66127 14.9392 2.64659C18.7018 4.98735 21.4605 6.71201 20.0812 12.5025C19.8302 13.4878 19.9558 14.3506 20.3322 15.5825C20.5826 13.6114 20.7078 12.0098 21.21 10.4082C22.0877 7.45126 23.7181 4.98745 26.3513 3.26279C26.9786 2.77013 27.7311 2.40052 28.358 1.90786C28.9852 1.4147 29.2358 1.29165 29.4868 2.15393C30.9918 5.60355 32.2459 9.17632 30.6156 13.1186C33.5 12.5024 36.2591 12.1328 39.0177 11.8867C41.5263 11.7632 44.1596 11.7632 46.6677 11.8867C49.8032 12.1328 52.9385 12.3794 55.8229 13.3647C57.7037 13.9809 58.7073 13.6113 59.9614 12.2558C62.4695 9.4224 65.1028 6.58897 67.8619 4.00204C68.9907 3.01621 70.1194 2.03089 71.7498 1.66127C71.7498 2.15393 71.7498 2.77013 71.7498 3.26279C71.1225 3.26279 70.7463 3.38583 70.2448 3.75546C69.3669 4.4947 68.4891 5.11049 67.7366 5.97318C61.968 12.0097 56.0734 17.9233 50.3047 23.9598C49.5521 24.8221 48.549 25.3148 47.4202 25.5613C45.6647 25.8074 43.9091 25.6844 42.153 25.6844C38.2656 25.6844 34.2525 25.6844 30.3645 26.4237C28.358 26.7927 26.4772 26.3001 24.721 25.1912C23.0907 24.0829 22.9655 22.7273 24.2195 21.3725C25.7246 19.771 27.6059 19.0317 29.6119 18.416C37.513 16.1983 45.4136 16.1983 53.3141 17.9228C53.6909 18.0458 53.9413 17.9228 54.1924 17.6768C54.8192 17.0606 55.3213 16.4443 55.9481 15.8287C54.9445 15.336 53.9414 15.2125 52.9385 14.9664C49.4269 14.2272 45.9152 13.9806 42.2788 13.8575C39.645 13.8575 37.011 14.2272 34.3778 14.5968C29.9883 15.2125 25.7247 16.1983 21.7115 18.2925C20.4574 18.9087 19.2033 19.6475 18.1999 20.7564C16.8205 22.3579 16.8205 23.9595 18.1999 25.438C19.0776 26.4233 20.2064 27.1626 21.4606 27.7788C23.9686 28.8876 26.4772 29.873 29.2363 30.3656C35.1303 31.5975 41.0242 31.8441 47.1698 31.4745C52.5622 31.1048 57.7037 30.2426 62.7205 28.2713C64.476 27.5321 66.1063 26.6698 67.3603 25.1913C68.1129 24.329 68.3639 23.3437 67.9871 22.2348C66.8588 18.9088 63.2219 17.9229 60.4628 20.1407C62.9709 22.2349 62.8456 24.0825 59.8355 25.5611C58.2052 26.4233 56.3244 26.7929 54.4431 27.0395C50.1795 27.5322 45.79 27.4091 41.4006 27.7788C40.0213 27.9018 38.5162 27.9018 36.8858 27.4091C39.896 26.9165 42.6545 26.9165 45.4137 27.0395C47.5455 27.0395 49.1759 26.4233 50.6809 24.9452C56.1992 19.1547 61.7168 13.4879 67.2351 7.82097C67.6133 7.44941 67.9801 7.06661 68.3562 6.69626C69.6427 5.42912 71.3735 6.50793 71.3735 8.31374C68.1129 10.2849 65.479 13.1184 62.4695 15.5822C62.8457 15.8288 62.971 15.9518 63.222 16.0754C66.7337 17.6769 69.7433 19.648 70.9973 23.4669C70.9973 23.5899 71.2477 23.5899 71.2477 23.7134C72 29.8727 72 36.0329 72 42.1924ZM29.4866 39.1124H29.6118C29.6118 38.4967 29.7376 38.0035 29.7376 37.3878C29.7376 36.7716 29.8629 36.1559 29.8629 35.5397C29.8629 35.047 29.9882 34.6773 30.6155 34.5543C31.7442 34.4312 32.9983 35.2935 33.1235 36.4024C33.2489 39.1123 33.6251 41.9458 33.2489 44.6562C33.2489 45.1489 33.1235 45.642 33.6251 45.765C34.3777 45.765 34.1272 45.1489 34.1272 44.6562C34.0014 43.0546 33.8762 41.4531 34.0014 39.8516C34.0014 39.4818 34.0014 38.9892 34.2524 38.8662C35.2554 38.7425 35.1302 38.0033 35.1302 37.3877C35.2554 36.7715 35.3806 36.1558 35.7568 35.663C36.1331 35.1699 36.7604 35.0469 37.2619 35.1699C37.8892 35.2934 38.0144 35.7861 38.1398 36.4018C38.1398 37.018 38.2655 37.7572 38.2655 38.373C38.3909 42.0687 38.2655 45.6414 38.516 49.3377C38.516 49.8303 38.516 50.4465 39.1433 50.9393C39.1433 48.7216 39.1433 46.7503 39.1433 44.6562C39.1433 42.0693 39.0174 39.4818 39.3937 36.895C39.5195 35.7862 40.1462 35.4165 41.1498 35.5396C42.529 35.5396 42.6542 36.6484 42.6542 37.6344C42.7801 39.3589 42.6542 41.207 42.6542 42.9316C42.6542 43.3012 42.4038 43.7939 43.0305 43.917C43.7831 43.917 43.5321 43.4242 43.5321 42.9316C43.4067 41.0835 43.4067 39.1124 43.5321 37.2648C43.5321 36.2789 43.9083 35.6631 45.0371 35.5397C46.0406 35.5397 47.169 35.1701 47.2947 36.7716C47.1689 35.4166 47.9214 35.1701 49.0503 35.2936C49.9281 35.4166 49.9281 36.156 49.9281 36.7716C50.0533 39.7286 50.0533 42.6851 50.1791 45.642C50.1791 46.5043 50.3044 47.2437 50.6806 47.9829C50.8059 47.3667 50.8059 46.7504 50.8059 46.1348C50.8059 42.9317 50.9317 39.7286 50.9317 36.5256C50.9317 36.0329 50.8059 35.2936 51.4332 35.0471C52.4362 34.6774 53.4398 34.4314 54.4428 34.6774C55.3206 34.924 54.6938 36.033 54.9443 36.6487C54.9443 36.8952 54.9443 37.1413 54.9443 37.3879C55.0702 38.0035 54.4428 39.1125 55.3206 39.236C56.0731 39.236 55.6968 38.1271 55.6968 37.5109C55.6968 34.0618 55.3206 34.4314 58.9575 33.4455C60.3373 33.0759 60.7131 33.3225 60.8388 34.8005C60.9641 36.7717 60.9641 38.6198 60.713 40.591C60.713 41.0837 60.5877 41.5763 61.0899 41.5763C61.7165 41.5763 61.5914 40.9606 61.5914 40.591C61.4655 38.2502 61.4655 36.033 61.5914 33.6922C61.5914 33.1989 61.5914 32.7064 62.218 32.4603C63.9737 31.721 65.7298 30.9818 67.4854 29.8728C67.9869 33.076 67.4854 36.279 67.8615 39.3591C67.9869 38.9895 68.1125 38.6199 68.1125 38.2503C68.1125 35.9095 68.1125 33.6923 68.1125 31.3515C68.1125 30.3661 68.1126 29.3803 69.1157 28.641C69.4919 28.2714 69.7429 27.6557 69.6172 27.0395C67.2344 29.0107 64.7262 30.4892 61.9676 31.3515C52.5615 34.308 42.9053 35.0473 33.2488 33.4457C27.48 32.4604 21.8365 31.3515 17.0714 27.2862C15.5664 32.2138 15.4411 37.0185 16.6946 41.8231C16.6946 38.497 16.5694 35.0473 17.9492 31.5981C18.4507 36.0332 18.3249 40.2215 19.3285 44.2868C20.7078 49.4612 23.2164 54.1427 25.3483 55.2516C25.3483 54.7584 24.9721 54.5124 24.721 54.1427C20.8337 47.6136 19.7049 40.7143 21.7115 33.3228C21.9625 32.4605 22.3382 31.9678 23.2165 32.0909C24.3448 32.3368 23.8433 33.1997 23.7181 33.8154C23.0908 38.0044 23.0909 42.1927 24.3448 46.3817C25.2232 49.2152 26.3513 51.4325 27.4801 52.5413C24.9721 44.6567 24.4707 38.7431 26.1008 36.7726C26.4765 39.729 26.3512 42.6855 27.6054 45.519C27.6054 45.2729 27.6054 45.0263 27.6054 44.7803C27.1039 41.4537 27.1039 38.2506 27.2291 34.9244C27.2291 34.4317 27.2291 33.5694 27.9816 33.5694C28.8594 33.5694 28.8594 34.4317 28.8594 35.0474C29.2356 36.5256 29.3613 37.7575 29.4866 39.1124ZM62.7202 17.5536C62.0929 16.6909 61.5914 17.184 61.0899 17.5536C59.7101 18.7855 58.2049 20.1405 56.951 21.3725C55.5716 22.7274 54.4428 24.0829 53.0635 25.4379C56.3241 22.974 59.2086 20.0174 62.7202 17.5536ZM35.5063 20.1406C32.1199 20.0175 28.8593 20.7563 25.8496 22.4814C25.223 22.851 24.9718 23.3436 25.223 24.2059C26.6022 22.7274 28.3578 22.2348 30.114 21.6191C31.7442 21.0029 33.625 20.6331 35.5063 20.1406ZM9.6717 11.5166C9.04504 8.92974 8.79393 6.21935 9.04505 3.63241C8.04151 6.3429 8.16717 8.92974 9.6717 11.5166ZM28.8593 4.24821C28.2325 6.09631 28.4835 7.82087 28.2325 9.54604C28.8593 7.82087 28.8593 6.09631 28.8593 4.24821ZM32.7473 53.0336C32.8725 55.0048 33.7503 56.4833 34.7538 57.3456C34.1266 55.9906 33.4998 54.6351 32.7473 53.0336ZM72 61.288C68.2379 61.288 64.4757 61.5339 60.4626 60.9182C62.2181 59.5629 63.9742 59.5629 65.855 59.4397C67.8615 59.3167 69.9935 59.4397 71.9999 59.4397C72 59.9325 72 60.5487 72 61.288ZM39.6448 1.29166C39.2685 2.52356 39.2686 3.75546 40.0211 4.74087C40.6477 5.60366 41.5261 6.21935 42.7802 5.84973C43.7833 5.48011 44.0343 4.74087 44.0343 3.75546C44.0343 3.2628 43.6579 2.77013 43.2818 2.64659C42.7802 2.40051 42.4039 2.89317 42.2782 3.26279C42.1529 3.87849 42.6544 3.63241 42.9054 3.63241C43.2818 3.50887 43.5322 3.63242 43.5322 4.12508C43.5322 4.61774 43.4068 5.11049 42.7802 5.23393C41.7766 5.48001 41.2751 4.86432 40.8989 4.12508C40.3973 2.89318 40.7736 1.53774 41.6514 0.922039C42.9054 0.182798 44.4104 0.429368 45.2883 1.53772C46.2913 2.64659 46.4171 4.24812 45.7898 5.60356C45.1626 6.83546 43.6579 7.57429 42.0276 7.45115C40.2716 7.20507 39.0175 6.34229 38.6413 4.86431C38.2654 3.50887 38.5159 2.52356 39.6448 1.29166ZM4.65558 59.6863C5.53335 59.6863 6.16063 59.5628 6.78749 59.5628C11.8041 59.4396 16.9455 59.1936 21.9624 59.5628C23.0906 59.6863 24.0942 60.1789 25.2231 60.6716C20.8335 62.0266 7.28941 61.411 4.65558 59.6863ZM54.9443 2.52356C54.5687 4.12508 54.9443 5.48002 56.199 6.58898C56.951 7.20519 57.8293 7.20518 58.456 6.46594C59.0832 5.84974 59.4595 5.11049 58.9575 4.24821C58.707 3.87859 58.5813 3.63251 58.0797 3.63251C57.9544 3.63251 57.7035 3.75556 57.7035 3.8786C57.453 4.37176 57.9544 4.37175 58.205 4.61783C58.7071 4.98745 58.5813 5.60367 58.205 5.97278C57.8293 6.3424 57.453 6.46594 56.951 6.09632C55.9479 5.35708 55.5716 3.87859 56.3242 2.76973C56.951 1.66138 58.5813 1.29175 59.7101 2.03099C61.2151 2.89327 61.842 4.98746 60.9641 6.46604C59.8353 8.31364 57.5783 8.92985 55.6968 7.94402C54.0666 7.08174 53.4398 4.74098 54.3176 3.2629C54.5687 3.01622 54.8191 2.77014 54.9443 2.52356ZM17.6981 57.099C16.3188 57.7152 14.8137 57.7152 13.4344 57.4686C13.0582 57.4686 12.6819 57.222 12.5562 56.8529C12.5562 56.4834 12.807 56.1137 13.1834 55.8672C14.4374 55.0048 16.193 55.4975 17.6981 57.099ZM67.109 57.099C68.1126 56.1136 68.9904 55.3743 70.3697 55.4975C70.997 55.6205 71.7495 55.8671 71.6237 56.6063C71.6237 57.3456 70.9971 57.5921 70.2445 57.5921C69.2415 57.5922 68.2379 57.5922 67.109 57.099ZM11.1769 51.8018C11.1769 52.541 10.8006 53.0337 9.92283 53.0337C9.1703 53.0337 8.54344 52.6641 8.54344 51.8018C8.54344 51.0625 9.04505 50.5698 9.79757 50.5698C10.4242 50.4467 11.1769 50.8164 11.1769 51.8018ZM44.7867 29.1335C43.1563 29.2571 41.6513 29.5032 40.1462 29.1335C41.6513 28.6408 43.1564 29.0105 44.7867 29.1335Z" fill="#7DAC3C"/>
</svg>
