<svg width="327" height="332" viewBox="0 0 327 332" fill="none" xmlns="http://www.w3.org/2000/svg">
<path opacity="0.3" d="M270.231 195.444C265.206 202.21 259.615 208.544 254.025 214.86C244.291 225.802 241.763 242.449 241.49 257.555C241.174 275.183 242.483 293.925 233.796 309.276C224.028 326.427 201.683 335.291 182.798 329.447C163.932 323.605 150.482 303.658 152.161 283.989C153.415 269.115 162.09 255.996 171.105 244.112C180.12 232.209 189.948 220.378 194.226 206.092C198.504 191.786 195.544 174.046 183.081 165.841C169.086 156.623 149.866 163.07 136.663 173.388C123.46 183.706 112.967 197.626 98.2277 205.592C76.8226 217.172 48.0627 213.164 30.6521 196.163C13.2221 179.161 8.52354 150.522 19.5792 128.842C25.7281 116.785 36.4326 105.843 35.8665 92.3135C35.1374 74.6047 16.0708 64.0771 6.89449 48.9011C-6.01451 27.5591 2.97327 -1.6362 21.0689 -18.8021C39.1437 -35.9301 64.0038 -43.6255 88.1758 -49.6407C129.304 -59.8458 171.192 -66.7211 213.43 -70.2057C237.558 -72.1862 262.894 -72.8566 284.803 -62.5447C315.609 -48.0328 333.501 -13.9345 337.488 19.8769C341.495 53.6891 333.829 87.7114 325.677 120.763L270.212 195.444L270.231 195.444Z" fill="url(#paint0_linear_546_714)"/>
<defs>
<linearGradient id="paint0_linear_546_714" x1="157.916" y1="329.896" x2="174.119" y2="-74.0272" gradientUnits="userSpaceOnUse">
<stop stop-color="#A8E25D"/>
<stop offset="0.3" stop-color="#DDD4A6"/>
</linearGradient>
</defs>
</svg>
