<svg width="132" height="93" viewBox="0 0 132 93" fill="none" xmlns="http://www.w3.org/2000/svg">
<path d="M12.7229 69.1273C12.5147 67.5874 12.8319 66.0533 12.1301 64.472C11.6754 65.6936 11.0968 66.7473 10.911 67.8658C10.6433 69.4772 9.782 70.2628 8.30615 70.8451C5.18076 72.0784 2.51052 74.0478 0 76.7611C0.564099 69.0261 3.706 62.7908 8.77323 57.5399C16.3399 49.6991 25.745 46.0388 36.6129 45.8495C44.1239 45.7186 51.4312 46.6296 58.4074 49.5474C58.856 49.735 59.2846 49.8565 59.8893 49.6007C56.2575 47.6469 52.4342 46.4508 48.5902 45.1838C49.2801 44.2587 50.5078 44.571 51.5023 43.6742C47.7267 43.3947 44.1228 43.2157 40.7746 41.4082C42.9201 40.6742 45.0728 40.204 47.0081 38.9754C42.8912 39.2229 38.8003 39.4664 34.9061 37.0926C37.2541 36.2324 39.3029 35.2145 41.4272 33.4584C36.0439 34.7198 31.02 35.5392 25.6836 34.4221C27.5624 33.0391 29.2674 31.6706 30.9578 29.479C26.3531 31.4557 22.1499 33.1111 17.4056 32.6647C17.7561 31.9096 18.1311 31.1018 18.5071 30.2918C18.3863 30.2447 18.2383 30.1451 18.1985 30.1775C15.9931 31.9719 13.55 32.1514 10.8104 31.659C8.48012 31.2402 6.06072 31.4023 3.50826 31.88C7.32746 26.5035 12.487 23.5264 18.5773 22.0359C30.1722 19.1982 40.2158 22.6598 49.0405 30.0452C54.5222 34.6329 58.5627 40.4423 61.5362 46.9584C61.9255 47.8116 61.927 48.4061 61.0747 49.0268C60.0103 49.802 59.3241 50.9018 59.1194 52.2445C58.9417 53.4105 58.4 53.8992 57.0807 53.9866C49.9421 54.4593 43.4316 57.025 36.8834 60.2865C37.7728 57.7359 39.0981 55.5762 40.3934 53.3537C36.5562 56.0438 34.1318 60.3953 29.5695 62.2918C30.1148 59.6839 30.8963 57.1391 31.8661 54.6189C28.2534 57.7606 26.202 62.3798 21.7583 64.8804C22.1661 61.9584 22.2208 59.1203 22.7585 56.2874C19.9072 60.9161 18.2174 66.3936 12.7229 69.1273Z" fill="#D1D8B7"/>
<path d="M81.7277 45.7407C83.0446 46.7004 84.3683 47.6512 85.6724 48.6278C85.9252 48.8171 86.3294 49.0043 86.1348 49.4431C85.9857 49.7792 85.6291 49.6712 85.3549 49.6872C80.7285 49.9574 76.1217 50.4146 71.5838 51.3663C70.7847 51.5338 70.6617 51.0597 70.4427 50.66C70.0793 49.997 69.4902 49.4063 70.2678 48.5142C72.7359 45.6822 75.4147 43.087 78.3516 40.7413C84.4891 35.8394 91.412 32.8107 99.2548 31.9734C111.49 30.6672 124.892 36.1051 131.483 47.9131C131.669 48.2464 131.776 48.6234 132 49.1778C128.343 47.6753 124.765 46.6619 120.985 46.6288C120.179 46.6218 119.889 46.0807 119.468 45.6279C118.652 44.749 117.845 43.8619 116.697 42.6099C117.243 44.1922 117.629 45.3091 118.045 46.5132C113.113 45.9472 109.502 43.2529 105.97 40.3473C106.671 42.2838 107.683 44.002 108.889 45.8335C103.958 46.1236 100.59 43.4599 96.9811 40.403C97.9449 42.7116 99.2915 44.3567 100.368 46.2846C96.0151 46.815 93.0925 44.0669 89.4007 41.898C91.2362 44.1722 92.5142 46.2711 94.6521 47.7945C89.9269 48.9405 86.0146 46.4765 81.7277 45.7407Z" fill="#D1D8B7"/>
<path d="M84.763 24.3833C87.14 25.2314 89.2588 25.6606 91.7047 25.5918C88.8732 28.5336 85.5732 29.5441 81.5704 29.6788C83.095 30.6553 84.5822 30.6175 85.983 31.2309C83.0636 32.9209 79.9947 33.9132 76.9945 35.2663C78.2721 35.3442 79.5497 35.4221 81.1145 35.5174C80.0595 36.4934 79.2396 37.286 78.3836 38.0377C75.0762 40.9421 71.8952 43.9793 69.5047 47.6959C68.762 48.8505 68.1406 48.1257 67.5122 47.9042C66.992 47.7208 66.2059 47.8019 66.4208 46.6176C68.9241 32.8259 73.9857 20.4609 86.0795 12.1797C92.8744 7.52688 100.326 5.49102 108.554 7.942C109.175 8.12719 109.768 8.33443 110.516 8.90851C107.859 9.53619 105.854 11.3087 103.251 11.6368C103.634 12.5591 104.551 11.931 105.12 12.322C105.302 12.9044 104.702 12.9073 104.451 13.1684C103.065 14.6104 101.197 15.3929 99.7834 16.9042C97.4321 19.4179 94.2167 19.2112 91.0751 18.6113C91.8217 19.81 91.8217 19.81 95.2247 21.4904C92.006 23.2422 88.4424 23.4393 84.763 24.3833Z" fill="#D1D8B7"/>
<path d="M51.3979 13.4274C47.1417 12.5758 43.8419 10.4157 41.3945 6.69684C42.6048 6.69684 43.7234 6.69684 45.3706 6.69684C42.7374 4.41057 40.4635 2.43622 38.0712 0.359045C42.629 -0.606786 46.6569 0.447067 50.5118 2.66771C54.4166 4.91711 56.7937 8.30114 58.3096 12.5111C58.4508 11.492 58.592 10.4729 58.7709 9.18182C62.0855 13.363 64.0541 17.8613 65.428 22.6471C67.3133 29.215 66.9351 35.8136 65.6606 42.423C65.4285 43.6263 65.2678 44.8432 65.0686 46.0529C64.9584 46.7219 65.0308 47.4446 64.0417 47.629C63.0047 47.8223 62.6678 47.1965 62.4017 46.4658C60.8014 42.0689 58.4555 38.0402 56.2131 33.9605C55.9637 33.5066 55.6455 33.0903 55.2691 32.5201C56.7061 32.7918 58.026 33.0416 59.843 33.3852C57.2581 30.9794 54.5913 29.3368 52.8459 26.5592C54.5958 26.8962 56.3117 27.104 58.4486 26.8071C54.673 25.0944 51.0367 23.7893 49.1198 19.9841C51.3219 20.184 53.4418 20.6539 55.9988 20.5992C52.454 18.6163 49.1165 17.0108 45.9371 14.3325C48.0732 14.369 49.8312 14.5218 51.3979 13.4274Z" fill="#D1D8B7"/>
<path d="M53.5499 68.0878C53.8322 66.3545 54.0644 64.9282 54.2966 63.5018C54.1433 63.3922 53.9901 63.2826 53.8368 63.173C51.9995 69.3502 47.9766 73.6692 42.5947 76.8018C43.3661 72.2133 43.8052 67.4593 45.3433 62.8951C41.4992 67.6265 41.5947 74.411 36.7621 78.6728C36.2924 76.0337 35.8231 73.3965 35.3537 70.7593C34.6916 75.6181 34.0671 80.5078 29.6834 83.8897C29.3682 82.4754 29.0443 81.0226 28.6331 79.178C27.7133 80.7896 27.7077 82.1491 27.7532 83.4869C27.7827 84.3504 27.4772 84.8042 26.7296 85.2659C22.3523 87.9692 21.1312 89.2064 19.0438 92.879C18.7427 89.2878 19.2429 86.0962 20.3131 82.9604C22.6742 76.042 27.136 70.6961 32.7551 66.1596C39.8828 60.4052 47.9421 56.806 57.0052 55.4207C58.2381 55.2322 58.9188 55.5504 59.7644 56.7065C61.1684 58.6259 60.8543 59.9112 59.4599 61.54C57.6069 63.7046 55.9345 66.022 53.5499 68.0878Z" fill="#D1D8B7"/>
</svg>
