<svg width="64" height="64" viewBox="0 0 64 64" fill="none" xmlns="http://www.w3.org/2000/svg">
<path fill-rule="evenodd" clip-rule="evenodd" d="M31.2388 31.7994H45.6357L45.6662 31.7657C52.4823 31.7657 58 26.2257 58 19.3829C58 12.5427 52.4819 7 45.6662 7C38.8531 7 33.3347 12.5737 33.3347 19.3829C33.3347 21.821 34.0325 24.1887 35.3275 26.1924C35.428 26.3607 35.2605 26.7278 35.2605 26.7278L30.9398 31.0656C30.8392 31.2002 30.7722 31.3654 30.8392 31.5337C30.9063 31.6989 31.0742 31.7994 31.2388 31.7994ZM43.8042 25.4242C43.8042 24.7237 44.371 24.1547 45.0687 24.1547C45.7665 24.1547 46.3332 24.69 46.3332 25.4242C46.3332 26.1584 45.7665 26.6938 45.0687 26.6938C44.371 26.6938 43.8042 26.1248 43.8042 25.4242ZM47.0981 16.213C47.0981 15.1454 46.2327 14.2766 45.1693 14.2766L45.2363 14.3102C44.1699 14.3102 43.3075 15.176 43.3075 16.2467C43.3075 16.9472 42.7408 17.5132 42.043 17.5132C41.3453 17.5132 40.7816 16.9136 40.7816 16.2467C40.7816 13.8086 42.7743 11.8049 45.2028 11.8049C47.6282 11.8049 49.624 13.7749 49.624 16.2467C49.624 18.0822 48.4265 19.7494 46.6989 20.3857C46.5313 20.4499 46.4307 20.6182 46.4307 20.7834V21.5512C46.4307 22.2854 45.867 22.8208 45.1693 22.8208C44.4715 22.8208 43.9048 22.2548 43.9048 21.5512V19.4159C43.9048 18.7491 44.505 18.1495 45.1693 18.1495C46.2327 18.1495 47.0981 17.2807 47.0981 16.213ZM47.5947 55.9664H47.7623L47.8293 56C49.2249 56 50.3218 55.0639 50.5533 53.6628L51.9184 45.4862C52.1165 44.1829 51.3852 42.9501 50.1877 42.4821L43.073 39.6127C42.2442 39.2456 41.2783 39.579 40.8791 40.3132L40.6811 40.5793C39.2185 42.9838 36.3909 44.2503 33.6669 43.718C32.7681 43.5161 31.8692 43.1153 31.1075 42.5831L30.8729 42.4148C26.4852 39.2792 22.6615 35.4401 19.5383 31.0351L19.3707 30.7996C18.807 29.9981 18.4414 29.1661 18.2403 28.23C17.7071 25.4614 18.9716 22.6226 21.3665 21.1542L21.598 21.0196C22.3293 20.5883 22.6615 19.6185 22.3293 18.8171L19.4712 11.6404C19.0385 10.5727 18.0422 9.90589 16.9118 9.90589C16.7777 9.90589 16.4456 9.93954 16.4456 9.93954L8.30134 11.307C6.90579 11.5425 5.90642 12.809 6.00696 14.2131L6.14103 16.0486C6.63769 23.9261 9.33119 31.5334 13.9538 38.0436C16.7113 41.8828 20.0356 45.2203 23.8594 47.9886C30.3098 52.6293 37.8874 55.3335 45.7672 55.8324L47.5947 55.9664Z" fill="#7DAC3C"/>
</svg>
