<svg width="64" height="64" viewBox="0 0 64 64" fill="none" xmlns="http://www.w3.org/2000/svg">
<path fill-rule="evenodd" clip-rule="evenodd" d="M32 11.4026C33.2096 11.4026 34.399 11.5061 35.5556 11.7056C34.1137 13.5539 32.8283 15.0866 31.3283 16.4045C29.7449 17.8009 27.909 18.9775 25.3686 20.0759C21.2498 21.8534 19.8357 24.1991 18.75 26.0095C18.1035 27.0827 17.5985 27.9108 16.649 28.0598C15.8485 28.1886 15.0581 28.2012 14.2752 28.1381C13.4873 28.0724 12.7171 27.9108 11.9747 27.6912C11.9418 27.6785 11.909 27.671 11.8787 27.6659C13.8535 18.3715 22.1161 11.4026 32 11.4026ZM37.6061 12.1778C42.6037 13.5867 46.8313 16.8388 49.5154 21.1568L43.3411 22.4167C43.3159 22.4243 43.2906 22.4243 43.2578 22.4294L42.4623 22.6238C39.1795 23.4065 35.1061 24.3761 35.1391 27.7949C35.1517 28.9185 34.3563 29.1786 33.8083 29.3604C33.5633 29.4437 33.3436 29.5144 33.1163 29.6382C31.8941 30.3047 31.4093 31.2289 31.4294 32.2616C31.4421 32.9787 31.7274 33.716 32.187 34.4129C32.5936 35.039 33.1567 35.6602 33.783 36.2283C35.7679 38.0261 38.6391 39.3315 39.8134 38.8922C40.5634 38.6144 41.1392 37.761 41.7074 36.9201C42.0887 36.352 42.4498 35.7965 42.4574 35.7965C42.5988 35.7763 42.2831 36.2939 42.4498 37.6978C42.6619 39.4375 42.9852 41.1292 43.3942 42.7982C43.8008 44.4596 44.2857 46.063 44.8235 47.6336C44.8614 47.7573 44.9271 47.8659 45.0104 47.9643C41.4624 50.8529 36.9373 52.5926 32.0028 52.5926C28.8941 52.5926 25.9396 51.9008 23.2883 50.661L23.2959 50.6484C23.5989 50.0272 23.9297 49.4465 24.3161 48.9541C24.6722 48.5022 25.0863 48.1335 25.5712 47.8734V47.8659C25.5914 47.8532 25.6166 47.8406 25.6419 47.828C27.9045 46.3812 29.7782 44.6465 30.7353 42.9926C31.2909 42.0306 31.5636 41.0661 31.4601 40.1496C31.349 39.1674 30.8465 38.3013 29.8439 37.6019C28.758 36.8444 27.0585 36.3091 24.5888 36.0894V36.097L24.5636 36.0894C22.6443 35.9657 21.3817 34.6805 20.4196 33.6908C20.0458 33.3095 19.7024 32.961 19.3463 32.6883C18.215 31.8147 17.22 31.6607 16.0432 33.1807C15.268 34.1882 14.5634 35.2436 13.922 36.3419C13.4447 37.1625 12.9977 37.9958 12.5786 38.8492C11.821 36.703 11.4094 34.3902 11.4094 31.9839C11.4094 31.1885 11.4548 30.4058 11.5457 29.6307C12.3867 29.8705 13.2326 30.0372 14.0988 30.1154C15.018 30.1988 15.9675 30.1735 16.9498 30.0195C18.8312 29.7291 19.5357 28.5525 20.4549 27.0325C21.4045 25.4619 22.6393 23.4193 26.157 21.8992C28.9247 20.7023 30.9273 19.4247 32.6547 17.8971C34.3668 16.3923 35.7962 14.6526 37.4375 12.5265C37.5158 12.4306 37.5739 12.3069 37.6067 12.1781L37.6061 12.1778ZM50.5026 22.9466C51.841 25.6812 52.591 28.7516 52.591 31.9961C52.591 37.6849 50.2829 42.8309 46.5607 46.56C46.096 45.1636 45.6819 43.7548 45.3258 42.3331C44.9445 40.7626 44.6339 39.1466 44.4268 37.4524C44.0707 34.5562 43.2576 33.6776 42.202 33.8139C41.3031 33.925 40.6768 34.8618 40.0353 35.8111C39.6414 36.3919 39.2474 36.9802 39.0985 37.0332C38.5303 37.2453 36.6161 36.1419 35.0959 34.7633C34.5908 34.3037 34.1515 33.8189 33.8358 33.3342C33.5706 32.9327 33.409 32.5463 33.4014 32.2282C33.3939 31.9379 33.5833 31.6475 34.0479 31.395C34.0934 31.3697 34.2424 31.3167 34.4166 31.2662C35.5278 30.9051 37.1388 30.3673 37.1136 27.7818C37.0934 25.9587 40.3131 25.1886 42.9066 24.57C43.0606 24.5321 43.2172 24.4917 43.7222 24.3705L50.2251 23.0398C50.3337 23.0247 50.4243 22.9921 50.5026 22.9466ZM21.5278 49.7266C18.0757 47.6839 15.2701 44.6591 13.4921 41.0385C13.6992 40.9425 13.8734 40.7734 13.977 40.5537C14.4871 39.4604 15.0376 38.3949 15.6437 37.3596C16.2447 36.3396 16.8987 35.3548 17.6285 34.413C17.828 34.1479 17.977 34.1605 18.1336 34.2766C18.3785 34.4635 18.6689 34.769 18.9997 35.0972C20.1967 36.3193 21.7548 37.9101 24.424 38.0893C26.5175 38.2761 27.9013 38.6903 28.7094 39.2533C29.1942 39.5891 29.4341 39.9704 29.4796 40.3719C29.5301 40.8441 29.3558 41.3995 29.0149 42.0005C28.2195 43.3716 26.6033 44.8512 24.626 46.1238C23.8836 46.5177 23.275 47.0681 22.7573 47.7145C22.2775 48.3053 21.8762 48.9969 21.5278 49.7266ZM12.3408 2.24207C11.818 2.08048 11.5201 1.52497 11.6817 0.999774C11.8433 0.469532 12.3989 0.17918 12.9292 0.340778L20.0656 2.53747C20.3509 2.61575 20.5959 2.81522 20.7196 3.10559C20.8232 3.33789 20.8232 3.59039 20.7449 3.81766L18.5529 10.9506C18.3913 11.4733 17.8357 11.7712 17.3054 11.6096C16.7827 11.448 16.4848 10.8925 16.6464 10.3622L18.1843 5.36027C13.6261 7.73376 9.74717 11.2358 6.93696 15.5028C3.81321 20.2321 2.00509 25.9007 2.00509 31.9961C2.00509 32.5466 1.55307 32.9986 1.00255 32.9986C0.446983 32.9986 0 32.5516 0 31.9961C0 25.4992 1.93941 19.4574 5.27533 14.4072C8.23494 9.92031 12.2954 6.22385 17.0734 3.69646L12.3408 2.24207ZM32 61.9952C32.5555 61.9952 33.0025 62.4421 33.0025 62.9976C33.0025 63.548 32.5505 64 32 64C25.51 64 19.4597 62.0608 14.4088 58.7329C9.92393 55.7635 6.21933 51.7034 3.6968 46.9285L2.24981 51.6477C2.08819 52.178 1.53261 52.4683 1.00231 52.3067C0.472006 52.1451 0.181618 51.582 0.343235 51.0594L2.53516 43.9239C2.61344 43.6385 2.81294 43.3936 3.10335 43.2699C3.33568 43.1739 3.59578 43.1664 3.8155 43.2446L10.9519 45.4363C11.4822 45.5979 11.7726 46.1534 11.611 46.6836C11.4494 47.2063 10.8938 47.5042 10.3685 47.3426L5.36593 45.8049C7.73971 50.3625 11.2422 54.241 15.5097 57.0509C20.2269 60.1793 25.896 61.9952 32 61.9952ZM61.9949 31.9961C61.9949 31.4406 62.4469 30.9937 62.9975 30.9937C63.553 30.9937 64 31.4406 64 31.9961C64 38.493 62.0606 44.5348 58.7247 49.5851C55.7651 54.0719 51.7046 57.7761 46.9266 60.2958L51.6514 61.7502C52.1741 61.9118 52.4721 62.4673 52.3104 62.9975C52.1488 63.5202 51.5933 63.8181 51.063 63.6565L43.9266 61.4648C43.6412 61.3866 43.3963 61.1871 43.2725 60.8967C43.169 60.6569 43.169 60.4044 43.2473 60.1847L45.4392 53.0491C45.6008 52.5189 46.1564 52.2286 46.6867 52.3902C47.2094 52.5518 47.5074 53.1148 47.3458 53.6375L45.8079 58.6395C50.366 56.2735 54.245 52.7639 57.0552 48.4969C60.1866 43.7677 61.9949 38.0987 61.9949 31.9961ZM32 2.00485C31.4494 2.00485 30.9974 1.55288 30.9974 1.00242C30.9974 0.451983 31.4494 0 32 0C38.4976 0 44.5402 1.93917 49.5911 5.27468C54.0785 8.23393 57.7831 12.2938 60.3031 17.0713L61.7501 12.3471C61.9117 11.8244 62.4673 11.5265 62.9976 11.6881C63.5279 11.8497 63.8183 12.4052 63.6567 12.9355L61.4647 20.071C61.3865 20.3563 61.187 20.6012 60.8965 20.7249C60.6642 20.8209 60.4041 20.8285 60.1844 20.7502L53.048 18.5585C52.5177 18.3969 52.2273 17.8339 52.3889 17.3112C52.5505 16.7809 53.1061 16.4906 53.6314 16.6522L58.634 18.1899C56.2602 13.6273 52.7577 9.75383 48.4902 6.93621C43.773 3.81285 38.1039 2.00485 32 2.00485Z" fill="#7DAC3C"/>
</svg>
