<svg width="78" height="45" viewBox="0 0 78 45" fill="none" xmlns="http://www.w3.org/2000/svg">
<path fill-rule="evenodd" clip-rule="evenodd" d="M77.3004 0.105778C78.0603 0.14514 78.2717 1.17294 77.5804 1.49659C73.7988 3.2679 70.6385 8.35588 68.5136 18.6412C65.9002 31.2867 55.2203 36.3033 46.9789 34.7084C46.4845 37.4331 46.3124 39.8342 46.2701 41.6289C46.2264 43.5095 44.6936 44.9995 42.8123 44.9995H42.7598C40.7035 44.9995 39.1182 43.2165 39.3121 41.1711C40.6495 26.9802 49.2657 19.1048 54.7697 15.4659C51.7668 16.5972 45.6722 19.4619 40.9266 25.3576C39.6767 26.9102 37.1596 26.1288 36.9481 24.1475L36.9423 24.0921C35.0726 6.29007 56.4789 -0.983253 77.3004 0.105778ZM0.356649 16.45C-0.231085 16.1759 -0.0517021 15.2997 0.597284 15.2662C18.3372 14.3375 36.5744 20.5349 34.9833 35.7026C34.8477 36.9914 33.1472 37.6022 32.1963 36.3091C28.0968 30.7488 22.4791 28.1232 19.7927 27.1099C22.8976 29.1641 27.1561 32.8058 30.0131 38.5382C31.1784 40.8766 29.9694 43.8069 27.4551 44.514C20.3265 46.5215 10.4196 42.3622 8.08323 31.0579C6.27336 22.296 3.5797 17.9603 0.356649 16.45Z" fill="#7DAC3C"/>
</svg>
