<svg width="56" height="62" viewBox="0 0 56 62" fill="none" xmlns="http://www.w3.org/2000/svg">
<path fill-rule="evenodd" clip-rule="evenodd" d="M28 0C28 0 43.6033 21.0803 43.6033 29.6245C43.6033 38.1687 36.6166 45.0929 28 45.0929C19.3813 45.0929 12.3967 38.1667 12.3967 29.6245C12.3967 21.0803 28 0 28 0ZM45.63 39.1998C44.9681 38.8962 44.6783 38.1198 44.9846 37.4637C45.2888 36.8075 46.074 36.5202 46.7359 36.8218C49.5601 38.1158 51.8664 39.7093 53.4656 41.5127C55.0956 43.3527 56 45.4068 56 47.5932C56 51.7502 52.7318 55.4324 47.4471 58.0264C42.446 60.4819 35.5683 62 28 62C20.4317 62 13.554 60.4819 8.55293 58.0264C3.26824 55.4324 0 51.7502 0 47.5932C0 45.4068 0.904419 43.3527 2.53443 41.5127C4.13361 39.7093 6.43782 38.1158 9.26413 36.8218C9.926 36.5202 10.7112 36.8055 11.0154 37.4616C11.3196 38.1178 11.0319 38.8962 10.37 39.1978C7.8705 40.341 5.86639 41.7123 4.52004 43.2325C3.31552 44.5917 2.64748 46.067 2.64748 47.5912C2.64748 50.6661 5.35046 53.5332 9.72045 55.679C14.3741 57.9632 20.8345 59.3774 28 59.3774C35.1655 59.3774 41.6259 57.9632 46.2796 55.679C50.6495 53.5332 53.3525 50.6682 53.3525 47.5912C53.3525 46.067 52.6845 44.5917 51.48 43.2325C50.1336 41.7123 48.1295 40.341 45.63 39.1978V39.1998ZM40.2775 45.6065C39.7328 45.1296 39.6814 44.3023 40.1644 43.7623C40.6454 43.2223 41.48 43.1714 42.0247 43.6502C42.6598 44.2086 43.1593 44.8138 43.5026 45.4577C43.8643 46.1363 44.0576 46.8535 44.0576 47.5932C44.0576 49.9692 42.1089 52.0273 38.9558 53.4313C36.1254 54.6927 32.2508 55.4731 28 55.4731C23.7492 55.4731 19.8726 54.6927 17.0442 53.4313C13.8931 52.0273 11.9424 49.9692 11.9424 47.5932C11.9424 46.8515 12.1357 46.1363 12.4974 45.4577C12.8407 44.8138 13.3422 44.2086 13.9753 43.6502C14.52 43.1714 15.3525 43.2223 15.8356 43.7623C16.3165 44.3023 16.2672 45.1296 15.7205 45.6065C15.3279 45.9529 15.0278 46.3115 14.8325 46.6763C14.6721 46.9758 14.5879 47.2835 14.5879 47.5932C14.5879 48.8444 15.9363 50.0732 18.1172 51.0452C20.6208 52.1618 24.1131 52.8526 27.9979 52.8526C31.8849 52.8526 35.3772 52.1618 37.8787 51.0452C40.0596 50.0732 41.408 48.8444 41.408 47.5932C41.408 47.2835 41.3237 46.9758 41.1634 46.6763C40.9681 46.3115 40.668 45.9508 40.2754 45.6065H40.2775ZM28 37.6776C28.7318 37.6776 29.3237 38.2645 29.3237 38.9899C29.3237 39.7154 28.7318 40.3022 28 40.3022C25.0257 40.3022 22.333 39.1061 20.3844 37.1743C18.4358 35.2426 17.2292 32.5731 17.2292 29.6245C17.2292 28.8991 17.8212 28.3122 18.5509 28.3122C19.2826 28.3122 19.8746 28.8991 19.8746 29.6245C19.8746 31.8477 20.7852 33.863 22.2549 35.32C23.7246 36.777 25.7554 37.6776 28 37.6776Z" fill="#7DAC3C"/>
</svg>
