<svg width="71" height="66" viewBox="0 0 71 66" fill="none" xmlns="http://www.w3.org/2000/svg">
<path d="M0 31.818C2.5663 24.8666 8.43188 23.037 15.031 22.6711C16.7417 22.5493 18.5749 22.4275 20.4079 22.9151C20.8966 23.037 21.141 22.7933 21.3856 22.3052C24.6849 13.4024 31.2841 7.42649 39.2272 2.67006C40.5713 1.93824 41.7932 1.08462 43.1376 0.230993C43.6266 -0.0131137 43.8708 -0.134917 44.4819 0.230993C50.8365 4.74322 56.9466 9.49965 61.1016 16.3292C64.2788 21.6956 66.6008 27.3057 66.3561 33.6475C65.9894 42.3067 62.5678 49.5022 55.4803 54.8686C55.2357 55.1121 54.869 55.2346 54.5024 55.6005C60.1239 56.0882 65.6228 55.4781 71 56.5759C69.4114 57.1859 67.9447 57.7955 66.234 57.7955C62.8121 57.9173 59.3905 57.9174 55.969 58.0397C50.7143 58.1615 45.4595 58.2831 40.0826 58.4054C38.7383 58.4054 38.7383 58.4054 37.8829 59.6251C46.1928 60.2345 54.5024 59.381 62.6902 60.6005C60.9792 61.3323 59.2683 61.6983 57.4353 61.8202C50.5921 62.3079 43.7486 62.0641 36.9053 62.0641C35.561 62.0641 34.2167 62.1859 32.8727 63.2838C40.0826 63.5279 47.0481 63.1619 54.3803 63.8932C52.4251 64.7474 50.7143 64.9909 49.0034 65.1133C45.7039 65.4786 42.4046 65.601 39.105 65.7227C31.8951 65.8447 24.8072 66.0886 17.5973 65.9668C13.9311 65.9668 10.1428 65.9669 6.47692 64.9909C6.23252 64.8691 5.98793 64.8691 5.74363 64.5032C7.57654 63.5278 9.7762 63.8932 11.9759 63.2837C9.5319 62.0641 7.57654 60.6004 5.74363 58.8931C3.29958 56.5758 1.46667 53.7708 0.366743 50.4781C0.366743 50.3557 0.244395 50.3557 0.122447 50.234C-9.78575e-08 44.0139 0 37.9162 0 31.818ZM27.4955 53.649C31.6507 53.8926 34.3389 53.405 36.9052 52.1854C41.3046 50.1122 42.7711 44.7457 40.3269 39.8676C36.172 31.4526 29.2064 26.6961 20.1635 25.1107C16.1307 24.3788 11.9758 24.7448 8.06514 26.452C2.68845 29.0129 0.733185 34.1353 3.29918 39.5017C4.64371 42.4285 6.72111 44.7457 9.28731 46.6971C15.031 51.0876 21.5076 53.4049 27.4955 53.649ZM40.2046 55.9658C44.1151 52.6732 45.9485 46.0877 44.3598 40.8429C43.0153 36.2089 40.2046 32.4279 36.6608 29.257C35.8054 28.5252 35.6834 27.7934 35.6834 26.6961C36.1721 21.8175 37.394 17.1834 39.105 12.5487C39.7159 10.7192 40.5714 8.89005 41.1826 7.0605C38.8606 9.74377 37.5164 13.1588 35.1945 15.9638C35.9278 12.4269 37.883 9.49967 39.594 6.45108C37.883 7.91412 36.2944 9.49966 34.9501 11.451C35.3167 9.74377 36.6608 8.40192 37.5164 6.57287C28.5956 12.427 24.0741 19.7443 23.5854 23.6471C25.0517 21.0863 26.6404 18.7689 28.5956 16.6952C27.4957 19.1348 26.396 21.5739 26.2736 24.3789C27.3735 22.5494 28.229 20.7198 29.0842 18.7689C29.9398 16.9394 31.8951 14.5003 32.8728 13.8903C31.1618 17.6712 29.4508 21.4516 29.5732 25.7203C30.4285 22.7935 31.5285 19.9886 32.9948 17.4271C32.9948 18.8907 32.5061 20.4763 32.6282 22.3058C33.4838 20.8422 34.0948 19.7444 34.7058 18.5249C34.7058 20.3544 34.4615 22.0617 34.2168 23.8913C34.0948 25.1109 34.3391 26.4521 33.9725 27.5499C33.6059 28.4036 33.8502 28.6477 34.3391 29.1354C35.9278 30.4768 37.3941 32.0623 38.7385 33.6477C42.649 38.2824 44.6043 43.4046 43.0154 49.5024C42.6488 51.6977 41.5489 53.8926 40.2046 55.9658ZM42.8932 7.18228C40.0825 14.5002 37.2719 21.9398 38.6159 29.989C38.8606 22.3051 41.6712 14.8661 42.8932 7.18228ZM4.03257 44.9899C3.91052 47.3071 4.52156 49.2586 5.62118 51.0875C5.62118 49.9898 5.25454 49.0144 5.74353 47.9167C6.23242 49.7462 6.84316 51.5753 7.82114 53.2831C7.69879 51.9412 7.4545 50.5998 7.94319 49.2585C8.06524 48.8924 7.82114 48.5267 7.57655 48.2826C6.35457 47.3071 5.49914 45.9653 4.03257 44.9899ZM53.1584 19.2565C53.525 22.1832 53.8913 25.1101 54.1357 28.1593C54.3803 31.2084 54.258 34.1352 54.5024 37.1843C55.6023 31.0866 54.9913 25.1101 53.1584 19.2565ZM4.52156 53.2832C4.15491 52.1853 3.66593 51.0876 3.29928 49.9899C2.5662 48.0385 2.07731 45.9653 2.3219 43.8922C2.44395 42.7945 2.19956 41.819 1.09993 40.9648C0.733286 45.5994 1.83291 49.7463 4.52156 53.2832ZM45.5817 5.96275C46.3148 10.7192 46.5591 15.4755 47.0481 20.232C47.2924 15.4755 47.5371 10.5974 45.5817 5.96275ZM38.1273 53.7708C35.6834 55.4781 34.828 58.1613 32.7503 59.7467C35.4387 58.649 38.0052 55.9658 38.1273 53.7708ZM43.6265 17.4269C44.7262 13.5242 44.7262 9.74376 44.2374 5.84095C44.1151 9.74376 43.8708 13.6465 43.6265 17.4269ZM11.3648 56.0881C10.8761 54.3803 10.5095 52.6731 10.9985 50.844C11.2426 50.1122 10.6318 49.9898 10.1428 49.7463C9.89855 49.6239 9.7762 49.7463 9.7762 49.9898C9.53181 52.3071 10.0205 54.3803 11.3648 56.0881ZM33.4834 55.7222C32.1394 57.4294 30.9174 59.2591 29.0842 60.7221C31.7728 59.8686 33.6057 57.7954 33.4834 55.7222ZM51.203 27.062C51.3251 24.8666 51.4473 22.6711 50.8364 20.232C50.7143 22.671 51.203 24.8666 51.203 27.062ZM16.7417 53.039C15.031 52.1852 13.1978 51.4534 11.4872 50.5998C12.9534 52.0636 14.7864 52.673 16.7417 53.039ZM46.4371 30.8424C46.8038 29.1351 47.0481 27.4275 46.4371 25.7201C46.4371 27.5498 46.4371 29.257 46.4371 30.8424ZM19.0636 18.1587C18.086 16.5732 16.9863 14.9878 15.8864 13.5242C15.3977 12.9147 15.3977 12.1827 16.0084 11.6951C16.7417 11.2074 17.3529 11.451 17.9637 11.9386C18.4527 12.4269 18.5749 13.0364 18.697 13.6464C18.9416 15.232 18.9416 16.6951 19.0636 18.1587ZM16.6197 17.3051C15.1531 16.4514 13.6867 16.4514 12.0981 16.2073C11.7315 16.2073 11.1205 16.2073 11.1205 15.5979C11.1205 15.1096 11.4872 14.7437 11.9759 14.622C12.5871 14.5002 13.1978 14.5002 13.9311 14.8661C15.1531 15.3537 16.0084 16.2073 16.6197 17.3051ZM23.9515 32.1839C21.3855 34.6235 20.8965 37.7944 21.8742 41.0872C22.8519 44.3798 25.1738 46.6971 28.7175 47.1849C32.017 47.6731 34.7056 46.453 36.2943 43.1603C36.4167 45.7217 35.4387 47.3071 33.2393 48.4044C31.2841 49.3803 29.0841 49.7462 27.0068 49.5021C20.0413 48.8926 13.809 46.4529 9.40976 40.7211C7.08776 37.672 6.96551 34.3793 8.92077 31.9402C10.6317 29.8669 12.9534 29.1351 15.5196 28.8911C21.9965 28.5252 27.4954 30.4766 32.1393 34.9894C32.5059 35.3547 32.8726 35.843 33.3613 36.4524C32.2613 36.2089 31.5283 36.6965 30.795 37.0624C31.0393 36.8184 31.1616 36.6965 31.4059 36.4524C31.5283 36.2089 32.1392 36.2089 31.7725 35.7206C31.5283 35.3553 31.1616 35.4771 30.795 35.7206C30.184 36.2089 29.573 36.6965 28.8397 37.1842C28.9621 36.3306 29.573 35.9647 30.062 35.477C30.3061 35.2329 30.7951 35.1111 30.5507 34.7452C30.3061 34.3793 29.8173 34.5011 29.4506 34.7452C28.351 35.3552 27.4954 36.2088 27.0067 37.4284C26.7624 38.0379 26.6401 38.6479 26.2734 39.5016C26.3958 37.0624 27.251 35.2329 28.8397 33.7697C27.0067 33.4038 25.9068 34.9894 24.4404 39.2575C24.0738 36.5748 25.1737 34.5011 26.518 32.5502C24.3181 33.4038 23.8295 35.3553 23.2184 37.3066C22.485 39.5016 23.3407 41.2088 24.807 43.1603C21.9965 41.3312 21.8742 37.5503 23.9515 32.1839Z" fill="#7DAC3C"/>
</svg>
