<svg width="375" height="346" viewBox="0 0 375 346" fill="none" xmlns="http://www.w3.org/2000/svg">
<path opacity="0.2" d="M418.483 234.014C414.173 221.96 408.852 210.282 403.523 198.632C394.218 178.425 397.909 153.118 404.194 131.045C411.533 105.289 421.726 78.6352 415.893 52.4854C409.285 23.2415 380.736 0.476838 350.71 0.613952C320.711 0.758485 292.343 23.7943 286.081 53.1184C281.323 75.2858 288.127 98.1881 295.969 119.444C303.805 140.728 312.852 162.268 312.748 184.92C312.637 207.6 300.488 232.069 278.748 238.479C254.335 245.683 229.257 227.812 214.636 206.979C200.015 186.145 190.924 161.276 173.03 143.18C147.048 116.884 103.484 109.987 70.6633 126.99C37.8144 143.985 18.318 183.523 24.7931 219.916C28.3948 240.156 39.1093 260.792 32.3017 280.202C23.4085 305.612 -8.95457 312.476 -29.0021 330.469C-57.2014 355.771 -57.0558 402.171 -38.3542 435.12C-19.6661 468.005 13.0546 490.184 45.5184 509.618C100.769 542.641 158.596 571.161 218.431 594.909C252.615 608.46 289.136 620.642 325.534 615.349C376.717 607.889 417.801 566.255 438.552 518.887C459.332 471.526 463.241 418.696 466.016 367.061L418.454 234.006L418.483 234.014Z" fill="url(#paint0_linear_72_1386)"/>
<defs>
<linearGradient id="paint0_linear_72_1386" x1="314.753" y1="-11.0451" x2="159.617" y2="583.073" gradientUnits="userSpaceOnUse">
<stop stop-color="#A8E25D"/>
<stop offset="0.3" stop-color="#B1EA87" stop-opacity="0.71"/>
<stop offset="1" stop-color="#CAFFF1" stop-opacity="0"/>
</linearGradient>
</defs>
</svg>
