<svg width="85" height="66" viewBox="0 0 85 66" fill="none" xmlns="http://www.w3.org/2000/svg">
<path d="M15.8065 30.5966C15.4749 33.1376 15.1434 35.7895 15.5855 38.3305C16.4698 43.3023 18.5698 47.3899 22.9912 50.1521C23.2122 50.2625 23.4334 50.5939 23.8755 50.3727C21.6649 48.6054 19.7859 46.5063 18.4594 43.9652C15.6961 38.3304 15.8065 32.5854 18.1277 26.8403C19.4542 23.6363 21.2229 20.7638 24.0967 18.6646C25.3125 17.7808 26.639 17.6701 27.8547 17.6701C34.7077 17.6701 40.4553 20.2112 45.2082 25.0726C45.6508 25.5144 45.5404 25.7355 45.0978 26.067C42.0032 28.4978 39.2398 31.149 37.4711 34.7949C34.5973 41.0926 38.1344 47.7213 43.2189 50.0417C42.224 48.9368 41.1186 47.8316 40.1237 46.6165C36.8079 42.3077 36.5868 37.4467 39.6817 32.9168C43.4401 27.3929 48.8557 24.2993 55.488 23.3048C57.6986 22.9734 59.9096 23.0837 62.0093 23.7467C65.9885 24.9622 68.0887 27.9451 68.8623 31.8121C70.1889 37.9989 68.8623 43.5229 64.8831 48.4946C64.7728 48.605 64.6619 48.8261 64.5515 48.9369C64.441 49.0473 64.3307 49.2679 64.1095 49.4891C66.4309 48.2739 68.6414 45.07 69.5255 41.9763C70.4095 38.7723 70.7416 35.6791 70.0784 32.3643C69.9679 31.591 70.1888 31.2595 70.852 31.0388C72.0677 30.7074 73.173 30.3759 74.3891 30.1549C72.8418 29.9342 71.294 30.1549 69.8571 30.7074C69.968 29.713 71.0728 29.3815 75.2731 29.1604C73.3942 28.3871 71.736 28.3871 70.0784 28.6083C69.5255 28.7186 69.1939 28.6083 68.8622 28.1664C68.7518 27.9453 68.4202 27.7241 68.5311 27.3926C68.6415 27.0611 69.0835 27.172 69.3047 27.172C70.4095 27.0611 71.5154 27.2824 72.9523 27.2824C71.7361 26.7298 70.7417 26.8405 69.8572 26.7298C69.3048 26.7298 68.8623 26.7298 68.3098 26.7298C67.6466 26.7298 67.2045 26.1776 67.2045 25.625C67.0941 24.9625 67.8678 25.1832 68.199 25.1832C72.5098 24.7413 76.4894 25.625 79.6944 28.9397C80.1369 29.3815 80.5789 29.9337 81.1314 30.2652C82.7895 30.9281 82.6791 32.1438 82.6791 33.58C82.6791 37.4464 81.9054 40.982 79.8052 44.2963C78.1471 46.9481 75.826 48.7159 72.9522 50.1521C77.1526 50.5939 81.1314 50.0412 85 50.7042C83.8947 51.3671 82.6791 51.6986 81.4629 51.8089C75.6048 52.1405 69.857 52.0301 63.9989 52.0301C61.6775 52.0301 59.4668 52.0301 57.2563 52.8035C54.1612 53.7979 51.0665 53.4664 47.9714 52.5823C46.6449 52.2513 45.4292 52.0302 44.1026 52.0302C31.7231 52.0302 19.3435 52.0302 6.96369 51.9198C4.97409 51.9198 3.09497 51.809 1.21595 51.2569C0.773926 51.1466 0.442294 51.0357 0 50.5939C3.64775 49.931 7.18467 50.3728 10.9428 50.0418C8.17929 48.7159 6.07938 46.9481 4.42141 44.6278C1.32626 40.319 0.331636 35.5685 1.65788 30.376C1.65788 30.2652 1.65789 30.0445 1.76855 29.9337C4.31075 27.6138 6.9636 25.4042 10.3901 24.7413C12.4903 24.2995 14.5903 24.1887 16.6904 24.5202C17.3537 24.631 17.6853 24.7413 17.2431 25.5146C16.5803 27.5033 16.2487 29.0499 15.8065 30.5966C15.5855 30.0444 14.9223 30.0444 14.4802 29.9341C12.8223 29.3815 11.0536 29.1603 9.39577 28.8288C11.2747 28.1663 13.2643 27.9451 15.2539 27.9451C12.9327 27.393 10.7221 27.6137 8.51155 27.9451C9.72749 27.2822 11.0537 26.8403 12.6013 26.7299C12.4907 26.3985 12.2697 26.3985 12.0485 26.3985C10.2799 26.6191 8.62193 27.0614 7.18502 28.2766C6.19031 29.0499 5.41667 30.1548 4.42178 30.9284C3.86918 31.3702 2.87419 31.8121 2.7638 32.8066C2.32151 36.6735 3.64811 39.9878 6.19031 42.9707C5.08503 40.7612 4.3111 38.4413 4.09014 35.8997C6.07973 39.4353 7.51665 43.4124 10.9432 45.8432C7.95895 42.4184 6.07974 38.4407 4.64283 34.1325C7.18511 37.7783 9.50625 41.6448 12.9328 44.6281C10.7222 41.4241 8.40096 38.2201 6.96405 34.4635C8.06933 35.7894 9.06423 37.0045 10.1695 38.3304C9.28529 36.1208 8.17999 34.0216 6.63242 32.1436C7.95894 32.5854 9.28528 33.1381 10.7222 33.5799C10.0589 31.7017 8.29057 31.591 6.96405 30.7073C8.73259 30.7073 10.1695 31.0387 11.7169 30.7073C10.8329 30.4861 9.83788 30.2655 8.84299 30.0443C10.6115 29.6025 12.3802 29.6025 14.0383 30.1548C14.5906 30.4862 15.1434 30.8177 15.8065 30.5966ZM48.8556 45.4009C50.4033 45.4009 51.9507 45.07 53.3876 44.6277C58.583 42.9707 62.5622 39.8771 65.1044 35.0161C67.0941 31.0384 65.878 27.6137 62.0092 25.9563C60.2407 25.183 58.3616 25.0726 56.4828 25.183C53.8297 25.4041 51.3983 26.1773 49.0768 27.2822C45.208 29.1603 42.1134 31.8121 40.1236 35.7895C38.3554 39.5456 39.4606 43.081 42.8871 44.5174C44.7661 45.2907 46.7559 45.5118 48.8556 45.4009ZM26.1966 22.4212C29.5127 25.9563 31.1707 30.3758 33.4919 34.4635C32.276 29.6025 30.1758 25.2937 27.3019 21.2056C29.2915 22.4211 30.618 24.2993 31.9443 25.9562C31.0601 24.0781 30.0654 22.3103 28.5178 20.8742C27.7442 20.2117 26.9705 19.659 25.865 19.8797C24.7597 20.1008 24.9807 21.4267 24.0966 21.8685C23.986 21.9789 24.0966 22.5314 23.6544 22.5314C23.2121 22.5314 23.4334 21.979 23.2121 21.7582C22.1068 23.1944 21.9964 23.5254 21.5542 25.8459C21.3332 25.1829 21.5542 24.6306 21.5542 23.8569C15.2538 33.3586 18.2382 44.5173 24.7596 48.4946C19.1225 43.081 18.4593 35.6785 19.4542 32.9168C20.1172 40.2085 24.3174 46.7267 27.5229 47.8316C22.1067 42.7495 20.4488 36.3415 21.0015 29.2709C21.6647 34.0215 22.991 38.6618 26.4175 42.6391C23.6542 36.6729 22.7699 33.6901 22.991 32.0327C24.0965 35.5683 26.3071 39.3249 27.8545 40.3188C25.2019 35.8998 23.212 31.3702 23.6543 26.1773C24.2069 28.4972 24.8703 30.8177 26.086 32.9169C25.6439 30.8177 25.3123 28.8288 24.8703 26.73C25.7543 28.2767 26.3072 29.9341 27.4125 31.3703C27.1915 29.9341 26.6388 28.7185 26.5282 27.0611C27.5229 28.0555 27.9651 29.2711 28.8495 30.0443C28.1862 27.6137 27.1913 24.9623 26.1966 22.4212ZM67.2045 32.475C66.6517 34.5743 65.878 36.4524 64.5515 38.2201C63.225 39.9877 61.6776 41.4241 59.9095 42.9706C63.8882 41.6448 67.5358 36.3416 67.2045 32.475ZM41.8923 45.6222C43.6608 47.3899 48.3033 48.0528 49.7401 46.7269C47.0875 46.8377 44.4344 46.7268 41.8923 45.6222ZM52.9456 46.2851C54.1618 46.3954 55.9298 45.733 57.1461 44.5174C55.8195 45.1803 54.3825 45.7329 52.9456 46.2851ZM66.6517 42.4181C67.3149 40.7613 67.6466 39.3249 67.4253 37.6676C67.0942 39.1038 66.873 40.5401 66.6517 41.9764C66.6517 42.0866 66.6517 42.1974 66.6517 42.4181ZM59.2462 15.4606C57.5881 17.5598 56.2616 19.3276 54.8247 21.2056C54.6034 21.5372 54.7142 21.979 54.1618 21.3161C53.9406 21.0954 53.4986 21.979 52.9457 22.2002C53.0561 19.6591 54.2722 17.781 56.1513 15.7921C52.9457 16.5654 49.7402 16.5655 47.1981 18.5543C47.4188 15.5709 49.7403 13.914 55.2668 12.8092C54.051 12.367 53.0561 11.9252 52.0617 11.5938C51.0668 11.2627 49.9615 10.9313 48.8557 10.8204C50.0718 9.2738 52.9457 8.27927 56.7036 10.4889C56.8145 10.0471 56.3724 9.93684 56.2616 9.71562C55.9299 9.2738 55.1562 9.05265 55.5988 8.16893C55.7091 8.05859 55.2667 7.50599 54.9355 7.28494C54.8246 7.17451 53.609 6.95337 54.8247 6.51155C55.0458 6.40121 54.7142 6.18008 54.6034 6.06974C54.3826 5.62792 53.1664 5.51714 53.9406 4.63351C53.9406 4.63351 53.7194 4.41236 53.4986 4.30202C53.1664 4.08089 52.8353 3.86011 52.6141 3.52863C56.5933 3.19716 59.3567 6.73269 59.9096 13.0299C60.6832 10.3786 61.7881 8.27927 64.1096 7.06416C66.431 5.8486 68.6415 5.8486 71.2941 6.95327C70.7418 7.06416 70.2992 7.17442 69.968 7.28485C69.5256 7.39519 68.9727 7.17443 68.8623 8.05815C68.8623 8.38962 67.757 8.5004 67.0942 8.61074C66.873 8.83187 67.9783 9.16282 66.9833 9.49438C65.7676 9.93674 64.8831 10.9307 63.6674 11.8147C68.9726 11.0414 73.1731 13.4716 74.8312 17.2283C73.6154 16.4549 72.3993 16.0131 71.1837 15.792C70.5204 15.6816 69.8571 15.129 68.9725 15.4605C68.4202 15.6816 67.4251 15.2395 66.6516 15.0187C65.1043 14.5764 63.557 14.4661 62.0091 14.5764C64.6617 15.3502 66.9832 16.6756 68.1989 19.2166C69.0834 20.9844 69.3046 22.3103 68.8622 24.4095C68.1989 23.5254 67.4252 22.8629 66.9831 21.9789C66.7619 21.6474 66.8727 21.0951 66.0986 21.0951C65.5463 21.0951 65.325 19.4378 65.1043 19.4378C64.3305 19.4378 63.8881 19.2166 63.5569 18.5541C63.446 18.333 63.5569 17.67 63.004 18.333C62.7833 18.6645 62.4511 18.1119 62.2304 17.8912C61.5671 17.0071 61.0142 16.1233 60.3509 15.1289C60.3509 15.9023 60.2405 16.4548 60.3509 17.0071C60.683 18.5541 60.683 20.2111 60.9038 21.7576C60.9038 21.9788 61.0141 22.2 60.683 22.3103C59.6881 22.5313 58.914 21.9788 58.914 20.874C58.6934 19.3276 59.025 17.5598 59.2462 15.4606ZM15.3645 23.1945C13.4853 20.5427 14.3696 17.8913 18.2383 14.2455C16.2487 14.577 11.2747 16.6762 9.17444 18.444C9.2851 15.5715 11.1643 13.9141 16.4698 11.8148C16.3591 11.4833 16.1381 11.4833 15.9171 11.373C14.7011 10.8204 13.7065 9.7156 12.2695 9.27378C12.2695 8.16893 11.2746 8.72118 10.8326 8.38971C13.7064 6.29097 16.9117 7.50598 20.0066 11.8148C19.7858 6.18008 21.1121 3.8602 24.649 3.52872C23.8754 4.30211 24.0964 5.40687 23.7649 6.18007C23.4333 7.06415 23.4333 8.16893 22.5489 8.94223C25.0911 8.05859 27.5228 7.72711 29.9547 9.82594C27.1911 10.1574 24.8702 11.0415 22.5489 12.4778C23.5437 12.9197 24.5385 13.1407 25.2018 13.8037C25.6438 14.2456 26.1965 14.6874 26.3071 15.24C26.4175 15.6818 26.8597 16.1236 26.5281 16.4551C26.1964 16.6758 25.7541 16.234 25.3121 16.234C23.6541 15.9026 22.2172 15.1292 20.8909 14.0244C20.7803 14.1348 20.7803 14.2455 20.6697 14.2455C21.1119 15.24 21.4433 16.3448 22.1066 17.3387C22.7698 18.4435 22.4382 19.1065 21.2223 19.7694C20.7803 18.0017 20.3381 16.3448 19.7854 14.577C19.2328 15.7921 18.7907 16.8968 18.2381 18.0017C18.1275 18.2227 18.2381 18.8853 17.5749 18.3332C17.0223 17.8913 17.1326 18.6646 17.1326 18.775C16.8014 20.2113 15.3645 21.316 15.3645 23.1945ZM39.35 6.51155C39.2396 5.84914 38.7974 5.51713 38.4657 4.96497C38.1343 4.41236 37.8027 3.86012 37.5814 3.19716C37.3605 2.0924 37.471 1.09796 38.4657 0.435005C39.35 -0.227494 40.6766 -0.117146 41.5606 0.656147C42.445 1.42944 42.5555 2.42386 42.2239 3.52863C41.8922 4.41236 41.4501 5.07533 40.8974 5.84853C42.2239 4.74376 43.4401 3.41831 45.2081 4.63342C46.2031 5.29637 46.4242 6.29079 46.2031 7.5059C45.8715 8.94215 44.7661 9.16326 43.4401 9.27369C44.2138 10.1573 44.9874 11.0414 44.3242 12.2565C43.8821 13.0298 43.2189 13.2509 42.3344 13.2509C40.345 13.0298 40.4553 11.2626 39.903 9.82623C39.7926 10.71 40.0134 11.4831 39.5714 12.2565C39.1291 12.9195 38.5765 13.3613 37.8028 13.472C36.8079 13.5824 35.7027 13.0297 35.371 12.1461C34.5974 9.93657 36.1447 9.05247 37.9132 8.27909C36.9185 8.27909 36.0343 8.72099 35.15 8.61065C33.8236 8.61065 33.0498 7.83728 32.7184 6.73251C32.3867 5.73809 32.3867 4.52297 33.3814 3.74923C34.2658 2.97594 35.4816 3.08673 36.4763 3.63889C37.2502 3.97027 37.8028 4.63331 38.2449 5.29626C38.5764 5.73826 38.7974 6.29087 39.35 6.51155C38.6867 6.95391 37.9131 6.40122 37.2498 6.84304C37.6921 7.61633 38.6867 7.17452 39.0183 7.50599C39.4606 8.0586 38.6867 8.72117 38.7974 9.27378C39.6816 9.27378 39.2397 7.94788 40.0133 8.05858C40.5662 8.16893 40.787 8.94222 41.3398 9.38404C41.4502 8.50031 40.5662 8.16885 40.5662 7.39565C41.1185 7.39565 41.5606 7.39565 42.1135 7.39565C42.4451 7.39565 42.8872 7.72712 42.9976 7.17451C42.9976 6.84303 42.4452 6.7327 42.224 6.84304C40.6766 6.95338 40.1237 6.29096 40.2341 4.74383C40.2341 4.74383 40.1237 4.74385 40.0134 4.63351C39.6817 5.29646 39.4606 5.8486 39.35 6.51155ZM9.8377 55.8971C11.0536 55.4547 12.2695 55.3445 13.4853 55.3445C23.4334 55.3445 33.2707 55.3445 43.2189 55.2341C52.5037 55.2341 61.7881 55.1238 71.0729 55.3445C71.9574 55.3445 72.7311 55.4548 73.8364 55.8971C72.289 56.6704 70.9625 57.0018 69.5256 57.0018C61.0143 57.0018 52.5037 57.0018 43.8821 57.0018C34.1552 57.0018 24.3178 57.0018 14.5906 57.0018C12.9326 56.8915 11.3851 56.7807 9.8377 55.8971ZM31.1707 61.2003C28.5178 61.2003 25.7544 61.2003 23.1017 61.2003C22.7701 61.2003 22.4385 61.2003 21.9964 61.0894C21.6648 60.9791 21.3332 60.7585 21.3332 60.427C21.3332 59.9847 21.5541 59.6532 21.9964 59.5429C22.4385 59.4326 22.9911 59.3224 23.5437 59.3224C28.9599 59.3224 34.2656 59.3224 39.6816 59.3224C39.7925 59.3224 40.0132 59.3224 40.1236 59.3224C40.5662 59.4327 41.2294 59.3224 41.2294 60.0956C41.2294 60.8689 40.6766 61.0895 40.0133 61.0895C39.3501 61.0895 38.7974 61.0895 38.1344 61.0895C35.8129 61.2003 33.4919 61.2003 31.1707 61.2003ZM52.2824 61.2003C49.6298 61.2003 46.9771 61.2003 44.3241 61.2003C43.9924 61.2003 43.6608 61.2003 43.2188 61.2003C42.6664 61.0894 42.445 60.6477 42.445 60.2059C42.445 59.6533 42.8872 59.5429 43.3292 59.5429C44.5449 59.5429 45.761 59.5429 46.9771 59.5429C51.3982 59.5429 55.7091 59.5429 60.1302 59.5429C60.9039 59.5429 62.0092 59.3218 62.0092 60.4266C62.0092 61.5319 60.9039 61.3107 60.1302 61.3107C57.5881 61.2003 54.9355 61.2003 52.2824 61.2003ZM42.0031 64.0729C42.9975 64.0729 43.8821 64.0729 44.877 64.0729C45.4293 64.0729 45.8715 64.2935 45.9818 64.9566C46.0927 65.6195 45.5403 65.951 44.9874 65.951C42.9976 65.951 41.0082 66.0613 38.908 65.951C38.3554 65.951 37.8027 65.7299 37.9131 65.067C37.9131 64.4045 38.4657 64.1832 39.0183 64.1832C40.1236 64.0729 41.0082 64.0729 42.0031 64.0729ZM3.75841 19.1065C4.7533 19.1065 5.30599 19.6591 5.30599 20.4324C5.30599 21.2056 4.8637 21.8686 3.97975 21.979C3.20582 22.0898 2.3215 21.3165 2.43217 20.6536C2.43208 19.7694 2.98467 19.2173 3.75841 19.1065ZM43.1079 17.4494C43.1079 18.4439 42.5556 18.8858 41.8923 18.8858C41.1185 18.8858 40.5662 18.4434 40.5662 17.6702C40.5662 16.8968 41.0082 16.3448 41.8923 16.3448C42.6664 16.3448 43.1079 16.8968 43.1079 17.4494ZM48.5245 42.4181C47.7508 42.529 46.9771 42.3078 46.3138 42.1975C43.1078 41.4237 41.8923 38.5516 43.5504 35.6787C46.203 31.2596 50.2926 28.9397 55.1562 28.0556C56.1512 27.835 57.1461 27.835 58.2513 27.9452C62.0092 28.6082 63.4462 31.3699 61.5673 34.5739C59.1355 38.7724 55.3775 41.0926 50.7351 42.0866C50.0718 42.3078 49.2981 42.5289 48.5245 42.4181ZM53.1664 38.4408C52.2824 38.2196 51.8404 37.5571 51.0667 36.8942C52.0616 38.9934 53.4986 39.7667 55.4879 39.6559C56.8144 39.5455 58.9141 37.5571 59.467 36.01C59.9096 34.4634 59.2463 32.3641 57.8094 31.149C57.9198 32.0327 58.0301 32.9168 58.2514 33.9107C57.3669 32.4745 56.5933 31.149 55.3775 30.2649C55.2667 31.1489 56.0403 31.8119 55.8196 32.8059C55.2668 32.0326 54.9355 31.3697 54.493 30.7067C54.3826 30.7067 54.3826 30.8176 54.2723 30.8176C54.7144 32.2539 55.2668 33.6901 55.7092 35.1264C55.5989 35.1264 55.5988 35.1264 55.4881 35.2368C54.6036 33.6901 53.6091 32.1431 52.7251 30.5965C52.9458 31.7013 53.2774 32.6957 53.7195 33.8005C54.162 34.7949 54.6036 35.7894 55.046 36.8942C54.0511 36.673 53.7195 35.8997 53.0562 35.4578C52.8355 36.01 53.4988 36.4524 53.1666 37.0045C52.7251 36.6731 52.7251 36.0101 52.1722 35.6786C52.1722 35.7895 52.0618 35.8997 52.1722 36.0101C52.5037 36.7838 52.8353 37.5572 53.1664 38.4408Z" fill="#7DAC3C"/>
</svg>
