<svg width="375" height="111" viewBox="0 0 375 111" fill="none" xmlns="http://www.w3.org/2000/svg">
<path d="M616.98 9.97706C613.365 8.07969 610.096 6.18162 606.353 4.64566C598.969 1.83912 590.577 0.211257 582.394 0.00139832C573.34 0.0152732 563.559 1.35281 555.663 3.95364C551.385 5.56798 547.347 7.88196 543.066 10.1141C538.049 12.7794 532.943 15.5555 527.918 18.2156C523.41 20.6083 519.663 22.5761 514.804 23.9091C507.229 25.9571 499.443 27.1763 491.666 26.9838C482.492 26.697 473.143 24.7084 464.734 21.3395C457.705 18.4272 451.33 14.4271 444.826 10.8449C439.506 7.86255 435.323 5.22667 428.841 3.24673C421.926 1.076 413.97 -0.0391854 406.655 0.00105144C397.727 0.0551636 388.785 1.59042 380.505 4.57246C376.389 6.16251 372.762 8.27707 368.874 10.3184C363.921 12.9733 358.834 15.7369 353.858 18.3675C349.146 20.9264 344.409 23.1984 338.951 24.444C327.463 27.3647 317.347 27.5537 305.546 25.5055C300.546 24.6938 294.654 23.188 290.528 21.3513C287.967 20.2216 286.044 19.0967 282.946 17.3706C278.119 14.6348 272.349 11.4201 267.075 8.73529C264.337 7.26453 261.702 5.84409 258.777 4.64427C257.034 3.98365 255.251 3.39691 253.435 2.88633C251.754 2.37656 250.035 1.95768 248.288 1.63239C248.241 1.62337 248.194 1.61643 248.147 1.60776C243.744 0.716198 239.239 0.205596 234.706 0.0843025C234.359 0.0843025 234.012 0.0877675 233.664 0.0912363C231.738 0.0423293 229.815 0.0600196 227.904 0.163041C223.934 0.448522 220.001 1.01675 216.15 1.86132C213.333 2.42117 210.622 3.11561 208.091 3.94811C207.003 4.36213 205.934 4.81075 204.888 5.29291C204.621 5.39976 204.357 5.508 204.095 5.61829C201.179 6.89893 198.667 8.33809 195.932 9.87752L195.491 10.1085C190.477 12.7739 185.369 15.5499 180.346 18.2101C177.291 19.8317 174.584 21.257 171.646 22.4239C170.388 22.9076 169.106 23.3469 167.803 23.7406C167.614 23.795 167.426 23.8509 167.232 23.9036C164.96 24.5205 162.656 25.0579 160.328 25.5141C159.749 25.6175 159.167 25.7153 158.584 25.8048V25.836C153.784 26.6706 148.936 27.099 144.092 26.9783C134.921 26.6914 125.57 24.7028 117.162 21.334C110.132 18.4217 103.761 14.4215 97.2554 10.8394C91.9364 7.85733 87.7527 5.22148 81.2702 3.24152C74.3471 1.076 66.7229 -0.0381448 59.4084 0.00209208C50.4807 0.0562043 41.2058 1.59042 32.9258 4.57246C28.8099 6.16251 25.1823 8.27707 21.2949 10.3184C16.3421 12.9733 11.2554 15.7369 6.27888 18.3675C1.56688 20.9264 -3.17047 23.1984 -8.62811 24.444C-20.1171 27.3647 -30.2305 27.5537 -42.0339 25.5055C-47.0316 24.6938 -52.9244 23.188 -57.0521 21.3513C-59.612 20.2216 -61.534 19.0967 -64.6349 17.3706C-70.8662 13.8374 -78.6814 9.50152 -84.9674 6.54374C-89.6779 4.32028 -93.9359 2.62409 -99.2925 1.63204C-105.946 0.468983 -112.887 -0.199093 -119.68 0.164774C-127.681 0.733298 -136.19 2.55055 -143.489 5.62177C-146.637 7.0037 -149.311 8.57086 -152.306 10.2483C-158.377 13.666 -166.433 18.0963 -172.736 21.0627C-177.623 23.3611 -183.179 24.9161 -189 25.8079V109.803C-183.174 108.911 -177.623 107.358 -172.736 105.058C-166.433 102.091 -158.377 97.6606 -152.306 94.2428C-149.311 92.5656 -146.637 90.9986 -143.489 89.6165C-136.19 86.5472 -127.719 84.5123 -119.718 83.9438C-112.925 83.5799 -105.946 84.464 -99.2925 85.6268C-93.9359 86.6203 -89.6779 88.3168 -84.9674 90.5385C-78.6814 93.4945 -70.8662 97.8304 -64.6349 101.365C-61.534 103.092 -59.612 104.217 -57.0521 105.346C-52.9244 107.183 -47.0316 108.689 -42.0339 109.5C-30.2305 111.549 -20.1171 111.361 -8.62811 108.439C-3.17047 107.193 1.56688 104.921 6.27888 102.362C11.2575 99.7318 16.3442 96.9684 21.2949 94.3128C25.1823 92.2721 28.8099 90.1572 32.9258 88.5658C41.2058 85.5831 50.4807 84.0494 59.4084 83.9953C66.7229 83.955 74.3472 85.0692 81.2638 87.2394C87.7463 89.2194 91.93 91.8552 97.249 94.838C103.752 98.4201 110.126 102.418 117.155 105.332C125.566 108.701 134.917 110.69 144.085 110.977C148.929 111.097 153.778 110.669 158.577 109.834V109.803C159.161 109.714 159.742 109.616 160.322 109.513C162.651 109.057 164.954 108.52 167.226 107.902C167.417 107.849 167.607 107.793 167.797 107.739C169.1 107.345 170.382 106.906 171.64 106.422C174.577 105.255 177.285 103.83 180.339 102.208C185.362 99.5478 190.473 96.7723 195.485 94.1067L195.926 93.8754C198.661 92.3363 201.173 90.8969 204.089 89.6165C204.35 89.5063 204.615 89.398 204.881 89.2913C205.928 88.8091 206.996 88.3601 208.085 87.9463C210.615 87.1137 213.329 86.4192 216.143 85.8596C220.052 85.0026 224.034 84.4342 227.898 84.1615C229.809 84.0598 231.732 84.0409 233.658 84.0896C234.005 84.0861 234.355 84.0826 234.7 84.0826C239.232 84.2029 243.738 84.7134 248.141 85.6063C248.188 85.6148 248.235 85.6218 248.282 85.6303C250.029 85.954 251.749 86.3728 253.428 86.8848C255.244 87.3949 257.028 87.9815 258.771 88.6424C261.696 89.8424 264.33 91.2643 267.068 92.7335C272.344 95.4184 278.115 98.6332 282.94 101.369C286.037 103.095 287.963 104.22 290.521 105.35C294.65 107.187 300.54 108.692 305.539 109.504C317.34 111.552 327.455 111.365 338.945 108.442C344.402 107.197 349.14 104.925 353.852 102.366C358.83 99.7353 363.917 96.9718 368.868 94.3163C372.755 92.2756 376.383 90.1606 380.498 88.5689C388.778 85.5866 397.727 83.9972 406.655 83.943C413.97 83.9028 421.92 85.0726 428.837 87.2429C435.319 89.2229 439.502 91.8587 444.822 94.841C451.325 98.4236 457.701 102.422 464.73 105.336C473.139 108.705 482.488 110.693 491.662 110.98C499.439 111.172 507.224 109.953 514.8 107.905C519.659 106.572 523.406 104.605 527.914 102.212C532.939 99.5512 538.049 96.7758 543.062 94.1102C547.339 91.8784 551.381 89.5643 555.658 87.9498C563.555 85.3503 573.34 83.9577 582.394 83.9438C590.577 84.1553 598.965 85.8387 606.348 88.6439C610.092 90.18 613.36 92.076 616.975 93.9756C619.595 95.3608 622.287 96.823 625 98.2886V14.2904C622.287 12.8245 619.59 11.3642 616.975 9.97706H616.98Z" fill="#3DAE4A"/>
</svg>
