<svg width="20" height="20" viewBox="0 0 20 20" fill="none" xmlns="http://www.w3.org/2000/svg">
<g clip-path="url(#clip0_206_4288)">
<path d="M10 19.9953C8.04479 19.9956 6.13252 19.4217 4.50064 18.3447L0.658136 19.5722L1.90376 15.8597C0.663563 14.1585 -0.00318234 12.1068 1.14204e-05 10.0016C1.14204e-05 4.49031 4.48314 0.0078125 9.99376 0.0078125C15.5044 0.0078125 19.9875 4.49031 19.9875 10.0016C19.9875 15.5128 15.5063 19.9953 9.99376 19.9953H10Z" fill="#FEFEFE"/>
<path d="M9.99991 0.0078125C4.48867 0.0078125 0.00585938 4.49079 0.00585938 10.0019C0.00585938 12.1874 0.710931 14.2145 1.90949 15.8598L0.663673 19.5734L4.50459 18.3455C6.08487 19.3913 7.97108 19.9964 10.0041 19.9964C15.5153 19.9964 19.9981 15.5133 19.9981 10.0024C19.9981 4.49145 15.5151 0.00830969 10.0041 0.00830969H9.99825L9.99991 0.0078125Z" fill="url(#paint0_linear_206_4288)"/>
<path d="M7.20969 5.08281C7.02219 4.61844 6.86906 4.60156 6.57531 4.58281L6.24031 4.57031C5.85906 4.57031 5.45906 4.68281 5.21781 4.92844C4.92406 5.22844 4.19531 5.92719 4.19531 7.36094C4.19531 8.79469 5.24094 10.1809 5.38281 10.3753C5.52969 10.5628 7.42156 13.5541 10.3597 14.7703C12.6572 15.7222 13.3384 15.6341 13.8616 15.5222C14.6253 15.3578 15.5828 14.7934 15.8241 14.1122C16.0653 13.4309 16.0653 12.8497 15.9941 12.7247C15.9228 12.5997 15.7297 12.5372 15.4359 12.3841C15.1422 12.2309 13.7147 11.5322 13.4441 11.4378C13.1797 11.3378 12.9272 11.3734 12.7272 11.6553C12.4459 12.0491 12.1691 12.4491 11.9459 12.6891C11.7697 12.8766 11.4816 12.9016 11.2409 12.8016C10.9178 12.6666 10.0128 12.3491 8.89719 11.3559C8.03344 10.5872 7.44594 9.62844 7.27531 9.34094C7.10469 9.04719 7.25781 8.87656 7.39281 8.71781C7.53969 8.53531 7.68031 8.40656 7.82781 8.23656C7.97531 8.06656 8.05719 7.97781 8.15094 7.77844C8.25094 7.59094 8.18031 7.38469 8.10969 7.23781C8.03906 7.09094 7.45156 5.65656 7.21094 5.07531L7.20969 5.08281Z" fill="#FEFEFE"/>
</g>
<defs>
<linearGradient id="paint0_linear_206_4288" x1="-75.1186" y1="-33.4768" x2="-75.1186" y2="-32.7435" gradientUnits="userSpaceOnUse">
<stop stop-color="#6EBF61"/>
<stop offset="0.231" stop-color="#50A557"/>
<stop offset="0.522" stop-color="#2A904F"/>
<stop offset="0.812" stop-color="#50A557"/>
<stop offset="1" stop-color="#6EBF63"/>
</linearGradient>
<clipPath id="clip0_206_4288">
<rect width="20" height="20" fill="white"/>
</clipPath>
</defs>
</svg>
