<svg width="66" height="79" viewBox="0 0 66 79" fill="none" xmlns="http://www.w3.org/2000/svg">
<path d="M1 3.55613C9.61236 1.23454 38.4702 -3.9279 39.0886 13.3895C39.2638 18.2943 33.7404 26.2448 27.8861 23.4718C20.0794 19.774 28.1735 10.0574 33.4874 8.90847C47.4859 5.88179 60.1591 20.2445 63.6721 32.2471C66.6222 42.3267 64.2367 53.3779 60.6225 62.9297C58.9271 67.4103 55.5288 70.4694 53.652 74.6924C50.7485 81.2254 57.8615 74.0759 61.4315 72.5141C68.7261 69.3228 56.7207 74.1375 54.2121 75.2525C50.073 77.0921 48.2938 65.8995 46.9305 61.8094" stroke="url(#paint0_linear_546_141)" stroke-width="1.5" stroke-linecap="round"/>
<defs>
<linearGradient id="paint0_linear_546_141" x1="53.512" y1="53.861" x2="33" y2="0.997993" gradientUnits="userSpaceOnUse">
<stop stop-color="#86AC3F"/>
<stop offset="1" stop-color="#F2CC69"/>
</linearGradient>
</defs>
</svg>
