<svg width="45" height="105" viewBox="0 0 45 105" fill="none" xmlns="http://www.w3.org/2000/svg">
<path d="M43.5828 1.40125C34.065 4.58598 3.80175 17.7099 14.0014 34.3273C16.8903 39.0338 27.0165 43.0481 30.778 36.8047C35.7938 28.4792 22.1586 24.4097 16.4625 26.6404C1.45698 32.5169 -1.48193 53.8684 2.69637 67.3057C6.20523 78.59 15.3202 87.464 24.6536 94.1676C29.0318 97.3122 34.1214 98.0644 38.5092 100.855C45.2974 105.171 34.1797 102.897 29.8612 103.655C21.0371 105.204 35.2874 102.245 38.3329 101.728C43.3577 100.876 38.0585 89.2773 36.7905 84.5948" stroke="url(#paint0_linear_546_738)" stroke-width="1.5" stroke-linecap="round"/>
<defs>
<linearGradient id="paint0_linear_546_738" x1="25.6737" y1="81.2412" x2="11.9954" y2="18.9222" gradientUnits="userSpaceOnUse">
<stop stop-color="#86AC3F"/>
<stop offset="1" stop-color="#F2CC69"/>
</linearGradient>
</defs>
</svg>
