<svg width="428" height="349" viewBox="0 0 428 349" fill="none" xmlns="http://www.w3.org/2000/svg">
<path opacity="0.3" d="M411.437 205.008C407.364 194.483 402.408 184.313 397.446 174.168C388.785 156.572 391.459 134.185 396.495 114.589C402.375 91.7231 410.749 68.0004 405.012 45.0881C398.521 19.4665 372.842 0.0557415 346.383 0.861782C319.949 1.67378 295.474 22.6224 290.625 48.6083C286.938 68.2528 293.456 88.2811 300.853 106.835C308.244 125.413 316.709 144.19 317.134 164.155C317.554 184.145 307.406 205.987 288.393 212.132C267.041 219.038 244.533 203.861 231.172 185.834C217.811 167.807 209.232 146.098 193.05 130.559C169.552 107.978 131.001 102.893 102.465 118.626C73.9036 134.354 57.624 169.643 64.1609 201.568C67.797 219.323 77.7105 237.265 72.154 254.526C64.8964 277.123 36.5318 283.91 19.2747 300.225C-4.99957 323.167 -3.81244 364.056 13.4211 392.667C30.6411 421.221 59.9837 440.021 89.0372 456.407C138.482 484.248 190.096 508.063 243.37 527.627C273.805 538.789 306.268 548.691 338.225 543.196C383.162 535.453 418.419 497.824 435.625 455.605C452.857 413.393 455.097 366.745 456.364 321.176L411.412 205.002L411.437 205.008Z" fill="url(#paint0_linear_546_1108)"/>
<defs>
<linearGradient id="paint0_linear_546_1108" x1="314.428" y1="-8.59258" x2="191.268" y2="518.537" gradientUnits="userSpaceOnUse">
<stop stop-color="#A8E25D"/>
<stop offset="0.3" stop-color="#B1EA87" stop-opacity="0.71"/>
<stop offset="1" stop-color="#CAFFF1" stop-opacity="0"/>
</linearGradient>
</defs>
</svg>
