<svg width="184" height="202" viewBox="0 0 184 202" fill="none" xmlns="http://www.w3.org/2000/svg">
<path d="M14.9274 117.994C15.295 122.325 16.027 126.62 16.7639 130.907C18.0623 138.348 14.6537 146.334 10.6743 153.033C6.02944 160.849 0.370202 168.713 0.0133927 177.802C-0.357893 187.975 7.03316 197.927 16.8981 200.491C26.7543 203.049 38.0634 197.952 42.6648 188.871C46.1509 182.008 45.9073 173.9 45.1797 166.242C44.457 158.575 43.3588 150.719 45.3599 143.293C47.3659 135.858 53.4773 128.882 61.1677 128.666C69.8044 128.422 76.4815 136.467 79.47 144.575C82.4585 152.683 83.2819 161.636 87.5822 169.13C93.8243 180.018 107.521 186.066 119.767 183.336C132.022 180.611 141.853 169.327 142.888 156.819C143.464 149.863 141.74 142.159 145.66 136.379C150.785 128.811 162 129.369 170.141 125.205C181.592 119.349 185.573 104.107 182.298 91.6671C179.021 79.25 170.21 69.1277 161.245 59.9289C145.983 44.2904 129.485 29.9059 111.913 16.9134C101.872 9.49619 90.9463 2.32526 78.5431 0.900799C61.0999 -1.09653 44.0032 9.00044 33.0805 22.7457C22.1491 36.4861 16.2784 53.4871 10.8838 70.1942L14.9361 117.999L14.9274 117.994Z" fill="url(#paint0_linear_93_1709)"/>
<defs>
<linearGradient id="paint0_linear_93_1709" x1="27.6845" y1="207.441" x2="130.228" y2="25.9326" gradientUnits="userSpaceOnUse">
<stop stop-color="#A8E25D"/>
<stop offset="0.3" stop-color="#B1EA87" stop-opacity="0.71"/>
<stop offset="1" stop-color="#CAFFF1" stop-opacity="0"/>
</linearGradient>
</defs>
</svg>
