<svg width="124" height="123" viewBox="0 0 124 123" fill="none" xmlns="http://www.w3.org/2000/svg">
<path d="M69.6076 53.1356C57.8494 48.8851 44.0503 71.0273 35.3223 84.1026C30.7592 90.9196 26.049 98.1795 26.0022 106.403C25.8915 114.54 32.6732 123.291 40.7083 122.065C46.1235 121.206 49.975 116.452 53.021 111.882C63.9228 95.3421 68.4942 81.5375 71.6473 61.9196C75.9267 72.7631 83.4676 79.1481 93.1901 85.4867C102.913 91.8254 119.035 89.5384 122.496 78.3554C123.756 74.2819 123.057 69.8238 121.581 65.865C114.998 48.914 90.9406 41.8811 76.2993 52.554C83.6237 46.9463 92.5621 43.9214 100.566 39.4297C108.569 34.9381 116.235 28.1416 117.964 19.0942C119.693 10.0468 112.363 -0.653705 103.243 0.556802C99.5145 1.05943 96.2706 3.42406 93.266 5.74855C80.1717 15.965 67.4759 29.5831 67.2828 46.1706C67.854 36.0876 68.2052 25.4264 63.2142 16.6457C58.2231 7.86496 45.5866 2.77781 37.7526 9.15972C31.2693 14.3556 31.2807 24.6853 35.5122 31.8716C39.6679 39.0459 46.9278 43.7561 53.9202 48.1914C43.84 46.6112 33.5325 44.9953 23.576 47.0841C13.3802 49.2131 3.65596 55.7646 0.87493 65.5789C-1.9061 75.3931 4.9473 87.6496 15.1537 87.9296C19.872 88.048 24.2527 85.8616 28.2664 83.54C40.2554 76.4117 50.8219 66.9638 59.241 55.8591" fill="#48C356"/>
</svg>
