<svg width="66" height="58" viewBox="0 0 66 58" fill="none" xmlns="http://www.w3.org/2000/svg">
<path d="M35.3271 30.0846C31.1287 25.2184 20.3881 33.0112 13.7679 37.4979C10.3322 39.8094 6.74641 42.3557 4.94321 46.427C3.14002 50.4984 4.22844 56.4129 8.0177 57.7037C10.572 58.5457 13.2527 57.0713 15.5644 55.4808C23.8271 49.7569 28.8114 43.969 34.3328 34.9436C33.9095 41.3393 35.7879 46.2966 38.6828 51.7495C41.5777 57.2024 49.0738 59.8092 52.9407 55.0485C54.3476 53.3063 55.0158 50.934 55.1978 48.5907C55.9661 38.6084 46.9933 29.4496 38.3087 31.3831C42.6838 30.3268 47.222 30.8718 51.6847 30.5248C56.1474 30.1778 60.9339 28.5981 63.6024 24.4617C66.2689 20.3557 65.3911 13.2927 61.1585 11.789C59.3978 11.1525 57.515 11.5479 55.7085 12.0095C47.8256 14.0267 39.3664 17.841 35.7539 26.0751C38.1494 21.1864 40.5938 15.9646 40.2869 10.4382C39.98 4.9119 35.5539 -0.581163 30.7856 0.724462C26.8659 1.81095 24.6419 6.95566 24.9597 11.5039C25.2508 16.0503 27.404 20.1082 29.4908 23.9476C25.4474 20.8046 21.3009 17.5936 16.5164 16.2981C11.7318 15.0026 6.09557 16.0061 2.80077 20.254C-0.494023 24.5019 -0.115927 32.2048 4.23768 34.7259C6.232 35.8979 8.63049 35.8425 10.8803 35.5938C17.6029 34.8457 24.2346 32.6234 30.2565 29.0454" fill="white"/>
</svg>
