<svg width="418" height="479" viewBox="0 0 418 479" fill="none" xmlns="http://www.w3.org/2000/svg">
<path opacity="0.3" d="M254.787 188.679C244.745 179.79 233.963 171.757 223.188 163.753C204.444 149.902 195.053 124.807 189.678 101.37C183.41 74.0216 179.308 44.4069 160.749 23.3472C139.917 -0.161776 102.215 -6.64405 74.72 8.64354C47.255 23.9235 32.8451 59.3942 41.9034 89.4752C48.7294 112.227 66.5391 129.815 84.4713 145.368C102.411 160.95 121.593 176.155 132.935 197.001C144.285 217.878 145.489 246.474 128.768 263.336C109.994 282.276 77.9496 278.534 54.0081 266.792C30.0666 255.05 9.1641 236.81 -16.3996 229.234C-53.5281 218.214 -97.0027 233.88 -118.546 266.061C-140.119 298.249 -138.052 344.388 -113.732 374.527C-100.206 391.288 -79.9501 404.821 -76.3985 426.077C-71.7316 453.894 -97.9747 476.536 -107.292 503.176C-120.403 540.642 -96.8401 583.163 -63.035 603.967C-29.275 624.718 11.9612 628.556 51.5753 630.004C118.969 632.42 186.454 629.402 253.373 620.989C291.596 616.168 331.272 608.91 362.013 585.673C405.231 552.98 421.923 494.016 417.054 440.054C412.215 386.085 389.128 335.614 365.603 286.813L254.757 188.687L254.787 188.679Z" fill="url(#paint0_linear_386_646)"/>
<defs>
<linearGradient id="paint0_linear_386_646" x1="35.8249" y1="16.0969" x2="193.406" y2="639.821" gradientUnits="userSpaceOnUse">
<stop stop-color="#A8E25D"/>
<stop offset="0.3" stop-color="#B1EA87" stop-opacity="0.71"/>
<stop offset="1" stop-color="#CAFFF1" stop-opacity="0"/>
</linearGradient>
</defs>
</svg>
