<svg width="101" height="66" viewBox="0 0 101 66" fill="none" xmlns="http://www.w3.org/2000/svg">
<path d="M101 66C67.3776 66 33.6226 66 0 66C1.71407 64.4038 3.69218 64.0048 5.66984 63.4729C9.75728 62.4086 13.9766 61.8767 18.1958 61.8767C19.119 61.8767 19.1189 61.6111 18.855 60.813C17.5366 57.4877 16.7454 54.0297 16.8773 50.4388C17.0092 46.1826 18.5913 42.5918 20.9647 39.2666C25.8433 32.6161 32.5679 28.4934 40.347 25.9662C49.1813 23.1734 58.0159 22.7744 66.9814 25.1681C73.0463 26.7643 78.0571 30.0896 81.0902 35.8086C83.8588 41.1284 84.5186 46.8474 84.2545 52.6998C84.1221 55.3597 83.4633 58.0198 82.6721 60.5469C82.4082 61.6112 82.5404 61.8768 83.5949 61.8768C88.21 61.8768 92.6928 62.6749 97.0443 64.0049C98.3628 64.4039 99.6815 64.803 100.868 65.6011C101 65.7338 101 65.8672 101 66ZM42.7206 62.01C48.2585 62.1428 54.3236 60.8129 60.1249 58.1528C66.0585 55.4924 71.3325 51.9014 74.8927 46.1824C79.2439 39.3991 77.9254 33.6802 71.2007 29.5568C66.8495 26.8969 61.9712 25.9659 57.0929 25.6998C48.5225 25.1679 40.347 27.0303 32.8317 31.4193C27.8211 34.3449 23.47 38.202 20.9647 43.6553C19.2506 47.2463 19.2506 50.8377 21.624 54.2957C22.9425 56.0247 24.5249 57.4875 26.3706 58.4185C31.2493 61.0785 36.3916 62.01 42.7206 62.01ZM65.7951 57.0886C73.0464 54.4287 80.4308 45.2517 79.2439 39.0003C78.585 43.1237 76.7387 46.4488 74.3656 49.3744C71.9919 52.3006 69.0917 54.5614 65.7951 57.0886ZM20.0418 56.0249C21.2286 60.281 30.0625 63.8719 33.7546 63.2067C28.6123 62.01 23.8656 59.882 20.0418 56.0249ZM21.624 6.54776C20.4374 6.01589 19.7779 4.95213 18.5915 4.15405C19.119 4.02067 19.5143 4.02067 19.9099 3.88784C18.9871 3.48879 18.1959 3.22313 17.4049 2.82408C23.7337 1.09508 28.3485 5.88305 28.876 14.5282C29.4036 12.7992 29.7989 11.0702 30.8538 9.60673C31.9086 8.0111 33.0955 6.6806 34.9412 6.01589C36.6553 5.35063 38.3694 5.08497 40.2154 5.61684C39.9518 6.14872 39.5562 6.01589 39.1606 6.14872C38.6329 6.41493 38.633 6.54776 38.633 7.21302C38.633 7.87773 37.7101 7.87772 37.3145 8.27677C37.1828 8.54298 35.8643 8.27677 36.9189 9.20769C36.9189 9.20769 36.9189 9.4739 36.7872 9.4739C35.3367 9.87294 35.3367 11.7348 33.8863 12.2667C33.6226 12.4 33.4907 12.6657 33.4907 12.9319C38.5013 12.7991 42.3251 14.5281 44.5665 19.3162C40.611 17.8528 36.3916 17.321 32.3041 16.9219C33.6226 17.72 34.8094 18.3853 35.996 19.3162C37.3145 20.3799 37.974 21.5772 38.765 23.0399C39.4243 24.2371 38.5014 24.6361 37.8421 25.0352C37.1829 25.5671 37.0509 24.6361 36.7873 24.3699C36.26 23.838 35.6005 23.5724 34.5459 23.3062C34.0183 23.1733 33.6227 22.5081 33.3592 22.109C32.6999 21.1781 32.1724 20.2472 31.5131 19.4491C30.9858 18.7839 30.5902 17.9863 29.5354 17.5873C30.4583 20.2472 31.1178 22.7744 31.3815 25.4343C31.3815 26.099 31.5132 26.6315 31.5132 27.2962C31.5132 28.7596 30.9859 29.5571 29.5355 29.8234C28.7443 29.9562 29.0082 29.2915 29.0082 29.0253C28.8762 26.4982 28.8762 23.8382 28.7443 21.3111C28.7443 20.2473 28.6126 19.3164 28.4806 17.9864C27.5577 19.4492 26.7665 20.6464 26.2393 21.9764C26.1073 22.3755 26.2393 23.3064 25.4481 22.2426C25.3161 21.9764 25.0525 22.1093 25.0525 22.7745C24.9205 24.3707 23.3384 25.0354 23.2064 26.7644C23.2064 27.5626 22.811 26.0997 22.1517 26.2325C21.7561 27.4297 21.3605 28.6262 21.3605 29.9562C20.7013 30.0896 20.9649 29.2915 20.4377 29.1587C20.1737 30.7543 20.042 32.2176 19.7781 33.9467C17.0095 30.3552 18.196 25.7006 23.0747 19.7154C22.2835 19.8483 21.8879 20.3801 21.3606 20.6464C20.8333 20.9126 20.4378 22.1091 19.5146 21.1782C18.8554 21.8435 18.328 22.5082 17.6688 23.3063C17.4051 22.7744 17.2732 22.5082 17.0095 22.1091C16.6139 22.7744 16.35 23.4391 15.9547 23.9715C15.8227 24.2372 15.6911 25.0353 15.1635 24.1044C14.8999 23.5725 14.7679 24.2372 14.6359 24.3706C13.845 25.3015 13.0539 26.3652 12.1309 27.5624C11.9989 24.2372 13.0537 21.71 15.1634 19.5819C17.2731 17.4544 20.042 16.6564 22.811 15.5921C22.1517 15.5921 21.4922 15.7254 20.8332 15.5921C20.4376 15.4592 19.3828 16.3901 19.6464 14.9273C19.5144 14.9273 19.2508 14.9273 19.1192 14.9273C18.4597 15.0602 17.8004 15.0602 17.1412 15.3264C16.2183 15.5921 15.9546 15.5921 16.35 14.3949C15.691 14.794 15.2954 15.0602 14.7678 15.193C14.3722 15.3258 13.9768 15.7254 14.1086 14.794C14.2406 14.2621 13.713 14.6611 13.5814 14.6611C12.2629 15.0602 10.9441 15.4592 9.49358 15.7254C11.8672 11.2031 16.7456 9.87316 24.1296 11.8684C23.4703 10.9369 22.8111 10.006 22.0199 9.2078C22.1518 8.54309 22.8111 9.34118 23.0747 8.80875C22.4155 8.41026 21.6242 7.87784 20.8333 7.47879C20.833 6.68114 21.3603 6.94681 21.624 6.54776ZM89.2645 9.87294C87.6828 9.60673 86.3643 9.87294 85.0452 9.34107C84.9134 9.34107 84.7819 9.34107 84.6501 9.34107C84.6501 11.203 83.595 9.34107 83.0677 9.74011C82.1448 10.5377 80.6942 9.34107 79.5079 10.5377C78.98 11.2029 77.6621 10.5377 76.607 11.0701C77.6621 11.7348 78.7167 11.7348 79.7712 12.001C84.3862 13.0647 87.6828 15.8581 89.6609 20.779C88.6058 20.1143 87.9467 19.5818 87.0233 19.3162C86.4958 19.1828 86.2325 17.4538 85.3091 18.9171C85.3091 18.9171 85.0452 18.7843 84.9134 18.6509C84.3861 17.8528 83.4633 17.9862 82.9362 17.5872C81.3536 16.39 79.2439 16.7891 77.7938 15.5919C77.7938 15.5919 77.662 15.5919 77.3981 15.7248C82.5405 18.9171 85.7046 23.3062 85.573 29.6904C84.7818 28.227 83.1994 27.2962 82.936 25.0353C82.5403 26.099 82.2764 26.6315 81.8809 25.7C81.7491 25.3015 81.617 24.7691 81.4852 24.37C81.3535 24.2372 81.3534 23.971 81.222 23.971C80.0351 23.4391 80.0351 23.4391 79.6396 22.5082C79.5078 22.1091 79.3763 21.5773 78.8484 22.3754C78.5851 22.7744 78.4527 22.5082 78.4527 22.3754C77.9254 20.6464 75.948 20.2473 75.5518 17.9864C75.42 18.6511 75.42 18.9173 75.2886 19.3164C73.8377 18.1193 73.3105 16.2574 71.7287 14.9275C71.992 17.1884 72.1238 19.1837 72.3877 21.3112C72.5199 22.6417 72.7832 23.9717 72.915 25.3016C73.0466 25.8335 73.3105 26.6316 72.3877 26.6316C71.7287 26.6316 70.8057 26.7644 70.5417 25.5673C70.1462 23.4392 70.1462 21.3112 70.2778 19.1837C70.2778 17.7203 70.4096 16.3904 70.5417 14.6612C69.0917 16.2574 68.1681 17.7202 67.1136 19.1837C66.8497 19.5822 66.8497 20.7793 65.9269 19.7155C65.9269 19.7155 65.6634 19.7155 65.6634 19.8484C65.3995 21.0455 63.8171 20.6465 63.4215 21.8436C63.1582 22.6417 62.6303 21.9764 62.103 21.8436C61.3118 21.7108 61.5757 21.3112 61.7073 20.7793C62.4985 18.1194 64.2127 16.1247 66.5863 14.7941C67.2453 14.5284 67.7725 14.1294 68.432 13.7303C66.4542 13.9965 64.3443 13.7303 62.4985 14.5284C62.103 14.6612 61.7073 15.1931 61.7073 14.2622C61.7073 13.7303 61.3118 14.1294 61.18 14.2622C60.5211 14.5284 59.7298 15.1931 59.3337 15.0603C57.6196 14.2622 57.0929 16.2574 55.6423 16.2574C57.2247 11.2032 61.1802 9.87316 66.0585 10.2722C65.9269 9.74033 65.5312 9.74033 65.3995 9.47412C65.004 8.80941 63.5532 9.20845 64.081 7.74511C64.081 7.74511 63.8171 7.61228 63.6855 7.47944C63.1582 6.94702 61.5759 7.34607 61.8392 5.75044C61.8392 5.61706 61.048 5.3514 60.5212 5.08519C60.2573 4.95235 59.8618 5.08518 59.73 4.68614C59.9935 4.2871 60.389 4.68614 60.7847 4.2871C59.8617 4.02143 59.0705 3.75522 57.8836 3.35618C61.0479 2.42526 63.6855 2.8243 66.0585 4.68614C68.432 6.41515 69.7505 8.94224 70.9374 11.4694C70.6735 8.80952 70.5417 6.14894 71.7286 3.62239C72.9149 1.22813 75.684 -0.23467 78.3211 0.0309965C76.2112 1.36096 76.8708 4.2871 75.1568 5.88338C75.42 5.75055 75.5518 5.75055 75.948 5.61717C75.8157 6.41526 74.8929 6.68147 74.8929 7.74522C80.1669 4.95213 84.9134 5.48401 89.2645 9.87294ZM13.1854 54.1624C11.7349 53.0987 10.4165 52.0344 8.96608 50.9705C8.4388 50.5714 8.17489 50.4386 7.77929 51.1033C7.51592 51.5024 7.25201 51.7686 6.72472 51.5024C6.19712 51.2362 5.93342 50.9705 6.06522 50.4386C6.19722 49.6405 6.06522 49.1087 5.01065 49.1087C4.48304 49.1087 3.95587 48.5762 4.08745 47.9115C4.08745 47.2463 4.48304 46.8472 5.14222 46.5816C5.80173 46.3153 6.32902 46.5816 6.8563 46.7144C6.98831 46.0491 6.72463 45.3844 7.12022 44.7192C7.38381 44.3201 7.51581 43.7883 8.04309 43.9211C8.57037 43.9211 8.96598 44.1873 9.09799 44.7192C9.22968 45.5173 9.49358 45.7835 10.4165 45.5173C10.8121 45.3844 11.2074 45.6501 11.4712 46.1825C11.7349 46.8473 11.6029 47.5125 11.0756 47.9115C10.1528 48.4434 10.4165 48.9753 10.944 49.6405C11.8668 51.1033 12.658 52.6995 13.449 54.1623C13.3171 54.0296 13.1854 54.0296 13.1854 54.1624ZM92.4293 42.4583C93.2205 42.1926 93.8796 41.7936 94.6708 42.1926C95.1981 42.4583 95.462 42.5917 95.5938 43.1235C95.5938 43.6554 95.5938 44.1873 94.9348 44.4535C92.0339 45.6506 90.3197 48.0444 88.7374 50.5714C88.2101 49.9062 88.4734 49.3743 88.6058 48.8424C89.1331 46.7144 90.0558 44.5862 89.2646 42.3253C89.1331 42.1925 89.2646 41.7935 89.3971 41.6601C89.661 40.5962 90.0559 39.2664 91.3749 39.5326C92.693 39.7981 92.5612 41.1282 92.2979 42.1925C92.4293 42.1926 92.4293 42.3255 92.4293 42.4583ZM96.5166 54.5614C96.1209 55.0939 96.3848 55.3595 96.9121 55.4929C97.4401 55.7586 97.9672 56.1576 97.7033 56.8229C97.44 57.4876 96.9121 57.8866 96.1209 57.6204C95.7259 57.4876 95.462 57.4876 95.3304 57.8866C95.1979 58.6847 94.6708 58.9509 94.0117 58.6847C93.2205 58.4185 92.4293 57.8866 92.6928 56.9557C92.825 56.4238 92.825 56.1576 92.2977 55.8914C91.6381 55.6257 91.6381 55.0939 91.902 54.5614C92.1655 53.8967 92.6928 53.7639 93.3523 53.8967C93.8796 54.0296 94.1435 54.4286 94.4068 53.6305C94.6708 52.9658 95.198 52.8324 95.726 52.9658C96.3849 53.365 96.6489 53.8967 96.5166 54.5614ZM6.46072 60.6795C6.19713 60.6795 5.93341 60.5467 5.80173 60.1476C5.53782 59.6157 5.40614 59.2167 4.61494 59.4829C4.08734 59.6157 3.82375 58.4186 4.48294 58.0196C5.01055 57.6205 5.14212 57.3549 5.01054 56.8224C4.87853 56.2906 5.27414 56.0249 5.66974 55.8915C6.06533 55.8915 6.59261 55.7587 6.72461 56.2906C6.8563 56.9558 7.2519 56.9558 7.7794 56.8224C8.17478 56.6896 8.70229 57.0886 8.83419 57.6205C8.96588 58.1529 8.70228 58.5514 8.30669 58.6848C7.91109 58.8177 7.64739 59.0839 7.7794 59.4829C8.04309 60.5467 7.12033 60.4138 6.46072 60.6795ZM50.1043 17.321C49.9725 17.1881 49.9725 17.1881 49.8404 17.1881C49.1814 16.2572 48.1264 15.1928 48.1264 14.262C48.1264 13.1982 49.4453 12.4001 49.7088 11.203C51.9507 13.5973 51.9507 14.262 50.1043 17.321ZM42.7206 57.0886C38.3693 57.3549 34.1501 56.5568 30.4581 54.1625C26.1069 51.3698 25.0521 47.1135 27.4255 42.4584C29.9308 37.4047 34.0182 34.2123 39.0286 31.8186C43.9072 29.4243 49.1814 28.6261 54.5876 28.6261C58.5431 28.7596 62.3669 29.4243 65.7951 31.5524C71.0689 34.7442 72.2558 39.7985 68.9592 44.9855C65.7951 49.9064 61.18 52.6997 55.9055 54.8278C51.6867 56.4239 47.335 57.3549 42.7206 57.0886ZM34.0182 44.1873C36.5235 39.9312 39.4242 36.0746 42.1931 32.2175C38.2376 35.2765 35.4687 39.3993 34.0182 44.1873ZM38.3693 34.0794C38.2376 33.9465 38.2376 33.9465 38.1057 33.8131C35.3367 35.5422 33.0954 37.8037 31.6449 40.4636C33.6226 38.4684 35.996 36.2075 38.3693 34.0794ZM59.9934 31.6851C57.6196 30.6213 55.2465 29.9561 52.6097 30.4885C55.1148 30.8876 57.488 31.2866 59.9934 31.6851ZM45.7533 31.8185C46.0169 33.9465 46.8084 35.9412 47.8628 37.9364C47.335 35.8084 46.9402 33.6803 45.7533 31.8185ZM43.9072 32.7494C43.3799 33.9465 42.7206 35.0103 43.1162 36.3402C43.3799 35.1431 43.6436 33.9465 43.9072 32.7494Z" fill="#7DAC3C"/>
</svg>
