<svg width="119" height="173" viewBox="0 0 119 173" fill="none" xmlns="http://www.w3.org/2000/svg">
<path d="M48.1666 44.1519C48.1666 44.1519 48.5139 44.6852 49.1686 45.6603C49.7946 46.6697 50.8343 48.1047 51.9786 50.0571C54.3828 53.907 57.5478 59.6811 60.95 67.0717C64.3521 74.4623 67.861 83.5005 71.3375 93.6402C74.8335 103.785 78.3167 115.035 82.3051 126.671C90.2969 149.967 99.3089 170.4 106.468 184.895C110.023 192.157 113.077 197.967 115.226 201.942C117.395 205.921 118.582 208.13 118.582 208.13C118.582 208.13 117.227 206.025 114.774 202.205C112.346 198.37 108.936 192.765 104.99 185.678C97.0747 171.519 87.2258 151.239 79.1538 127.76C75.1492 116.018 71.8641 104.711 68.668 94.5138C65.496 84.3016 62.4325 75.2035 59.4219 67.7198C56.4353 60.2213 53.6515 54.3107 51.5311 50.3014C50.5264 48.279 49.6069 46.7694 49.053 45.7153C48.475 44.6761 48.1757 44.113 48.1757 44.113L48.1666 44.1519Z" fill="#BFFFC3"/>
<path d="M44.1988 39.4737C50.6345 36.1146 57.0851 32.7797 63.5208 29.4206C66.1876 28.033 68.9219 26.6201 71.9056 26.3337C77.7081 25.7633 83.6189 30.2504 84.4022 36.0207C85.205 41.7955 80.5302 47.8061 74.7162 48.2505C71.7221 48.4934 68.7912 47.416 65.9952 46.2882C57.3727 42.7674 45.861 39.0418 40.1534 46.3917" fill="#BFFFC3"/>
<path d="M47.4532 42.8219C41.2636 36.195 33.8348 30.7359 25.6573 26.806C23.2003 25.6343 20.614 24.5762 17.8968 24.5143C8.79946 24.3327 3.551 34.5426 0.495068 43.1098C6.5028 44.2923 12.6892 44.0995 18.7977 43.8884C28.5083 43.5564 38.1995 43.2199 47.9101 42.8879" fill="#BFFFC3"/>
<path d="M47.2277 36.5445C35.2265 46.0339 25.5234 58.4241 19.1604 72.3367C17.558 75.8429 16.1356 79.72 16.9093 83.5162C17.683 87.3125 21.5113 90.6952 25.2351 89.617C27.9642 88.8396 29.5925 86.0993 30.8648 83.5632C38.4462 68.3958 43.086 51.7584 44.4188 34.8591" fill="#BFFFC3"/>
<path d="M47.4562 36.3351C40.267 43.8717 46.1454 56.382 53.3423 63.8817C56.15 66.7992 59.379 69.6717 63.3619 70.3795C67.3449 71.0873 72.1211 68.6743 72.5472 64.6664C72.7904 62.4025 71.6378 60.2222 70.4065 58.2904C64.6146 49.3537 55.695 42.4565 45.5806 39.0789" fill="#BFFFC3"/>
<path d="M46.882 40.2639C38.8123 33.7713 40.728 21.2192 43.4038 11.2073C44.5442 6.95602 46.2669 2.06081 50.4772 0.747471C56.542 -1.11699 61.5929 6.24938 61.9141 12.5891C62.4866 23.8144 54.9627 34.9696 44.3261 38.6377" fill="#BFFFC3"/>
<path d="M72.7966 107.116C72.7966 107.116 73.137 107.504 73.9799 107.763C74.8332 108.066 76.1921 107.789 77.6743 106.986C79.2057 106.236 80.7663 104.836 83.0635 103.711C85.3366 102.6 88.1253 101.919 91.0077 101.013C93.9245 100.136 96.8146 98.7598 99.1586 96.2079C101.547 93.7281 103.425 90.4507 105.215 86.8447C106.99 83.2147 108.894 79.3888 110.454 75.3593C111.991 71.3448 113.189 67.0248 113.153 62.6211L113.141 61.7967C113.141 61.7967 113.146 61.7772 113.15 61.7577C113.15 61.7577 113.15 61.7577 113.068 61.759L112.961 61.7751L112.903 61.7614L112.487 61.8694L110.872 62.189C108.745 62.6762 106.689 63.3855 104.732 64.2001C100.812 65.8487 97.3152 68.1507 94.2967 70.6882C88.2506 75.8023 84.2721 81.9966 81.6751 87.4674C79.0884 92.9816 77.7332 97.7987 76.9527 101.128C76.1677 104.477 75.8853 106.382 75.8853 106.382C75.8853 106.382 75.9169 105.897 76.0055 104.993C76.0746 104.085 76.2052 102.74 76.4614 101.033C76.9544 97.6161 77.895 92.6402 80.1665 86.8056C81.3023 83.8883 82.8284 80.7955 84.8147 77.6669C86.8011 74.5382 89.3405 71.416 92.4469 68.5909C95.5533 65.7659 99.221 63.1752 103.442 61.2893C105.553 60.3464 107.777 59.5328 110.102 58.9893L111.872 58.6237L112.322 58.5443L113.13 58.4258L114.742 58.208L115.551 58.0894L115.952 58.0399C115.952 58.0399 116.107 57.9939 116.137 58.042L116.15 58.2504L116.296 59.9895C116.329 60.5517 116.421 61.21 116.433 61.6852L116.457 62.6356C116.487 67.6748 115.096 72.3808 113.397 76.5626C111.669 80.7789 109.61 84.5683 107.674 88.1812C105.7 91.7851 103.534 95.2414 100.725 97.8486C99.3282 99.1642 97.8016 100.244 96.1832 101.015C94.5648 101.786 92.9518 102.27 91.4293 102.632C88.3841 103.356 85.6696 103.808 83.4513 104.685C81.257 105.546 79.4959 106.838 77.851 107.459C76.2508 108.152 74.759 108.295 73.8896 107.886C73.0305 107.52 72.7668 107.068 72.7382 107.103L72.7966 107.116Z" fill="#BFFFC3"/>
<path d="M80.5533 130.035C80.5533 130.035 80.7997 130.299 80.8438 130.987C80.8775 131.631 80.6174 132.741 79.528 133.533C78.4386 134.325 76.7487 134.525 74.9967 134.463C73.2357 134.441 71.2112 134.315 68.9792 133.936C64.5737 133.19 59.3442 131.492 54.2954 128.234C51.759 126.612 49.2899 124.616 47.0139 122.234C45.876 121.043 44.8043 119.745 43.7899 118.377C42.7593 116.903 41.7308 115.245 41.6476 112.884C41.6157 111.706 42.1196 110.345 43.028 109.449C43.9604 108.538 45.0605 108.138 45.9935 107.926C46.9551 107.679 47.8036 107.652 48.6566 107.605C49.5141 107.539 50.3477 107.488 51.1973 107.544C54.5454 107.63 57.7326 108.316 60.5765 109.414C63.4205 110.512 65.8961 111.955 68.0866 113.475C70.2199 115.064 72.1014 116.675 73.6244 118.326C75.1761 119.943 76.4221 121.55 77.4663 122.965C78.458 124.43 79.2869 125.713 79.8557 126.791C80.4874 127.863 80.8546 128.75 81.1493 129.333C81.4246 129.911 81.5749 130.234 81.5749 130.234C81.5749 130.234 81.396 129.945 81.0292 129.408C80.6623 128.87 80.175 128.057 79.4185 127.079C78.7101 126.071 77.7668 124.925 76.6367 123.613C75.4781 122.335 74.1235 120.929 72.4827 119.517C70.8659 118.09 68.9537 116.697 66.8389 115.38C64.6715 114.112 62.2775 112.935 59.6455 112.071C57.0136 111.208 54.13 110.716 51.1667 110.741C50.4144 110.708 49.6782 110.782 48.942 110.856C48.1864 110.925 47.4158 110.97 46.7977 111.154C45.4594 111.518 45.0441 111.975 45.0094 112.912C45.0467 115.118 47.4638 117.862 49.3686 120.075C51.3903 122.315 53.6212 124.276 55.8908 125.897C60.4358 129.201 65.2087 131.183 69.3626 132.3C71.4516 132.852 73.3629 133.197 75.0829 133.395C76.7937 133.632 78.2536 133.625 79.2688 133.062C80.2794 132.518 80.692 131.547 80.7316 130.94C80.7757 130.313 80.5819 130.001 80.5819 130.001L80.5533 130.035Z" fill="#BFFFC3"/>
<path d="M53.8319 115.529C53.8319 115.529 55.4494 116.34 57.9535 117.748C60.4577 119.157 63.8382 121.12 67.4332 123.483C71.0282 125.845 74.1767 128.186 76.4624 129.913C78.7435 131.659 80.1334 132.827 80.1334 132.827C80.1334 132.827 78.3617 132.412 75.6689 131.37C72.9521 130.343 69.2947 128.684 65.6115 126.26C61.9283 123.835 58.9639 121.148 56.9492 119.053C54.93 116.978 53.8365 115.51 53.8365 115.51L53.8319 115.529Z" fill="#BFFFC3"/>
<path d="M100.144 80.668C100.144 80.668 99.9628 81.18 99.5491 82.0689C99.1307 82.9772 98.407 84.2247 97.2974 85.6283C96.2074 87.0364 94.6972 88.572 92.9053 90.0826C91.1329 91.5977 89.0788 93.0879 86.9618 94.5839C84.8836 96.089 82.9452 97.5242 81.3273 98.9934C79.714 100.443 78.3675 101.894 77.4171 103.232C76.4621 104.59 75.8299 105.797 75.4745 106.7C75.2676 107.144 75.1855 107.494 75.0872 107.738C75.0084 107.987 74.957 108.119 74.957 108.119C74.957 108.119 74.95 107.973 74.9464 107.726C74.9473 107.459 74.9126 107.081 74.9683 106.581C75.0168 105.586 75.2766 104.127 75.9405 102.434C76.6044 100.741 77.765 98.8566 79.3047 97.0199C80.8639 95.1877 82.8319 93.4514 85.0302 91.8718C87.2045 90.3071 89.3343 89.0195 91.2375 87.8225C93.1212 86.621 94.8023 85.4952 96.1159 84.4476C97.449 83.4045 98.4685 82.4728 99.1274 81.7646C99.7864 81.0565 100.149 80.6486 100.149 80.6486L100.144 80.668Z" fill="#BFFFC3"/>
</svg>
